<?xml version="1.0" encoding="UTF-8" standalone="no"?>
<!DOCTYPE svg PUBLIC "-//W3C//DTD SVG 1.1//EN" "http://www.w3.org/Graphics/SVG/1.1/DTD/svg11.dtd">
<svg width="100%" height="100%" viewBox="0 0 427 273" version="1.1" xmlns="http://www.w3.org/2000/svg" xmlns:xlink="http://www.w3.org/1999/xlink" xml:space="preserve" xmlns:serif="http://www.serif.com/" style="fill-rule:evenodd;clip-rule:evenodd;stroke-linejoin:round;stroke-miterlimit:2;">
    <g transform="matrix(1,0,0,1,-454.452,-0.0633345)">
        <g id="Artboard1" transform="matrix(0.973514,0,0,0.769976,-108.938,-7.13449)">
            <rect x="578.718" y="9.348" width="437.949" height="353.89" style="fill:none;"/>
            <g transform="matrix(7.49387,0,0,9.47482,-462.495,-1885.94)">
                <path d="M150.951,217.532L154.661,217.532C155.443,217.532 156.11,217.418 156.712,217.239C157.27,217.073 157.863,216.869 158.275,216.458C158.698,216.034 159.052,215.34 159.251,214.7C159.479,213.967 159.673,212.951 159.642,212.063C159.609,211.135 159.382,209.915 159.056,209.133C158.77,208.448 158.34,207.766 157.689,207.376C157.168,206.985 156.403,206.838 155.736,206.692C155.068,206.546 154.596,206.497 153.685,206.497L152.22,206.497C151.634,206.497 150.951,206.509 150.951,206.509L150.951,217.532ZM150.951,230.905L152.025,230.911L153.685,230.911C154.987,230.911 156.061,230.813 156.908,230.618C157.819,230.422 158.535,230.064 159.056,229.544C159.707,228.893 160.163,228.203 160.423,227.395C160.716,226.484 160.814,225.116 160.814,224.075C160.814,222.252 160.358,220.787 159.447,219.68C158.535,218.573 157.168,218.02 155.345,218.02L150.951,218.02L150.951,230.905ZM146.947,231.301L146.947,206.106L150.755,206.106C150.885,206.106 151.829,206.112 152.025,206.112L154.368,206.112C156.387,206.112 158.014,206.204 159.251,206.594C160.423,206.92 161.4,207.441 162.181,208.157C162.962,208.873 163.451,209.524 163.646,210.11C163.906,210.696 164.036,211.314 164.036,211.965C164.036,212.682 163.841,213.398 163.451,214.114C163.06,214.83 162.539,215.416 161.888,215.872C161.302,216.327 160.553,216.718 159.642,217.044C158.796,217.369 157.917,217.564 157.005,217.629L157.005,217.727C157.982,217.857 158.991,218.004 159.935,218.313C160.879,218.622 161.823,219.062 162.669,219.583C163.516,220.103 164.167,220.722 164.622,221.438C165.143,222.284 165.404,223.196 165.404,224.172C165.404,225.279 165.176,226.256 164.72,227.102C164.199,228.014 163.516,228.762 162.669,229.348C161.888,229.934 160.47,230.62 159.251,230.911C157.879,231.238 156.061,231.312 154.433,231.312L152.187,231.312L150.853,231.301L146.947,231.301ZM165.745,206.106L170.042,206.106L177.464,225.149L177.562,225.149L184.983,206.106L189.378,206.106L189.378,231.301L185.374,231.301L185.374,206.79L185.276,206.79L175.706,231.301L165.745,206.106Z" style="fill-rule:nonzero;"/>
            </g>
            <g transform="matrix(7.49387,0,0,9.47482,-462.495,-1885.94)">
                <path d="M150.951,217.532L154.661,217.532C155.443,217.532 156.11,217.418 156.712,217.239C157.27,217.073 157.863,216.869 158.275,216.458C158.698,216.034 159.052,215.34 159.251,214.7C159.479,213.967 159.673,212.951 159.642,212.063C159.609,211.135 159.382,209.915 159.056,209.133C158.77,208.448 158.34,207.766 157.689,207.376C157.168,206.985 156.403,206.838 155.736,206.692C155.068,206.546 154.596,206.497 153.685,206.497L152.22,206.497C151.634,206.497 150.951,206.509 150.951,206.509L150.951,217.532ZM150.951,230.905L152.025,230.911L153.685,230.911C154.987,230.911 156.061,230.813 156.908,230.618C157.819,230.422 158.535,230.064 159.056,229.544C159.707,228.893 160.163,228.203 160.423,227.395C160.716,226.484 160.814,225.116 160.814,224.075C160.814,222.252 160.358,220.787 159.447,219.68C158.535,218.573 157.168,218.02 155.345,218.02L150.951,218.02L150.951,230.905ZM146.947,231.301L146.947,206.106L150.755,206.106C150.885,206.106 151.829,206.112 152.025,206.112L154.368,206.112C156.387,206.112 158.014,206.204 159.251,206.594C160.423,206.92 161.4,207.441 162.181,208.157C162.962,208.873 163.451,209.524 163.646,210.11C163.906,210.696 164.036,211.314 164.036,211.965C164.036,212.682 163.841,213.398 163.451,214.114C163.06,214.83 162.539,215.416 161.888,215.872C161.302,216.327 160.553,216.718 159.642,217.044C158.796,217.369 157.917,217.564 157.005,217.629L157.005,217.727C157.982,217.857 158.991,218.004 159.935,218.313C160.879,218.622 161.823,219.062 162.669,219.583C163.516,220.103 164.167,220.722 164.622,221.438C165.143,222.284 165.404,223.196 165.404,224.172C165.404,225.279 165.176,226.256 164.72,227.102C164.199,228.014 163.516,228.762 162.669,229.348C161.888,229.934 160.47,230.62 159.251,230.911C157.879,231.238 156.061,231.312 154.433,231.312L152.187,231.312L150.853,231.301L146.947,231.301ZM165.745,206.106L170.042,206.106L177.464,225.149L177.562,225.149L184.983,206.106L189.378,206.106L189.378,231.301L185.374,231.301L185.374,206.79L185.276,206.79L175.706,231.301L165.745,206.106Z" style="fill-rule:nonzero;"/>
            </g>
        </g>
    </g>
</svg>
