<?xml version="1.0" encoding="UTF-8" standalone="no"?>
<!DOCTYPE svg PUBLIC "-//W3C//DTD SVG 1.1//EN" "http://www.w3.org/Graphics/SVG/1.1/DTD/svg11.dtd">
<svg width="100%" height="100%" viewBox="0 0 427 273" version="1.1" xmlns="http://www.w3.org/2000/svg" xmlns:xlink="http://www.w3.org/1999/xlink" xml:space="preserve" xmlns:serif="http://www.serif.com/" style="fill-rule:evenodd;clip-rule:evenodd;stroke-linejoin:round;stroke-miterlimit:2;">
    <g transform="matrix(1,0,0,1,-454.452,-306.349)">
        <g id="Artboard1" transform="matrix(0.973514,0,0,0.769976,-108.938,299.151)">
            <rect x="578.718" y="9.348" width="437.949" height="353.89" style="fill:none;"/>
            <g transform="matrix(7.49387,0,0,9.47482,-462.495,-1885.94)">
                <path d="M146.947,206.106L150.755,206.106C150.885,206.106 151.829,206.112 152.025,206.112L154.368,206.112C156.387,206.112 158.014,206.204 159.251,206.594C159.475,206.657 159.692,206.726 159.902,206.802L156.235,206.802C156.066,206.763 155.898,206.728 155.736,206.692C155.068,206.546 154.596,206.497 153.685,206.497L152.22,206.497C151.634,206.497 150.951,206.509 150.951,206.509L150.951,206.802L146.947,206.802L146.947,206.106ZM165.745,206.106L170.042,206.106L170.313,206.802L166.02,206.802L165.745,206.106ZM184.983,206.106L189.378,206.106L189.378,206.802L185.374,206.802L185.374,206.79L185.276,206.79L185.271,206.802L184.712,206.802L184.983,206.106ZM154.433,231.312L152.187,231.312L150.853,231.301L146.947,231.301L146.947,230.616L150.951,230.616L150.951,230.905L152.025,230.911L153.685,230.911C154.987,230.911 156.061,230.813 156.908,230.618C156.91,230.617 156.913,230.617 156.916,230.616L160.218,230.616C159.892,230.735 159.565,230.836 159.251,230.911C157.879,231.238 156.061,231.312 154.433,231.312ZM185.374,206.987L189.378,206.987L189.378,207.316C187.937,207.338 186.615,207.347 185.374,207.347L185.374,206.987ZM185.374,207.502C186.624,207.502 187.95,207.489 189.378,207.458L189.378,207.606C187.947,207.646 186.622,207.663 185.374,207.663L185.374,207.502ZM185.374,208.431C186.613,208.433 187.932,208.397 189.378,208.307L189.378,209.245C187.955,209.393 186.629,209.454 185.374,209.454L185.374,208.431ZM185.374,210.472C186.62,210.472 187.944,210.383 189.378,210.168L189.378,210.53C187.91,210.793 186.591,210.909 185.374,210.92L185.374,210.472ZM185.374,211.199C186.534,211.169 187.895,211.062 189.378,210.808L189.378,211.167C187.959,211.442 186.628,211.563 185.374,211.574L185.374,211.199ZM185.374,212.817C186.626,212.812 187.953,212.66 189.378,212.304L189.378,213.275C187.941,213.707 186.619,213.885 185.374,213.883L185.374,212.817ZM185.374,214.399C186.714,214.33 188.065,214.096 189.378,213.704L189.378,214.032C188.066,214.442 186.715,214.688 185.374,214.761L185.374,214.399ZM185.374,215.711C186.599,215.654 187.948,215.42 189.378,214.902L189.378,215.777C188.062,216.282 186.708,216.576 185.374,216.662L185.374,215.711ZM185.374,217.131C186.729,217.037 188.085,216.714 189.378,216.191L189.378,216.497C188.187,217.011 186.825,217.418 185.374,217.539L185.374,217.131ZM189.378,216.778L189.378,216.907C188.083,217.46 186.725,217.797 185.374,217.894L185.374,217.764C186.59,217.676 187.968,217.378 189.378,216.778ZM185.374,218.584C186.712,218.494 188.071,218.151 189.378,217.557L189.378,218.615C187.969,219.341 186.625,219.628 185.374,219.621L185.374,218.584ZM185.374,219.833C186.849,219.748 188.213,219.282 189.378,218.694L189.378,219.008C188.104,219.6 186.74,219.947 185.374,220.004L185.374,219.833ZM185.374,220.174C186.728,220.126 188.093,219.796 189.378,219.202L189.378,219.329C188.095,219.922 186.729,220.251 185.374,220.294L185.374,220.174ZM189.378,219.735L189.378,219.867C188.102,220.456 186.735,220.778 185.374,220.807L185.374,220.695C185.406,220.694 185.439,220.693 185.471,220.692C186.691,220.649 188.05,220.348 189.378,219.735ZM185.374,221.528C186.757,221.515 188.126,221.184 189.378,220.602L189.378,220.881C188.129,221.46 186.76,221.788 185.374,221.794L185.374,221.528ZM185.374,222.507C186.76,222.521 188.132,222.214 189.378,221.648L189.378,222.429C188.229,223.037 186.874,223.467 185.374,223.417L185.374,222.507ZM185.374,223.419C185.448,223.421 185.523,223.422 185.599,223.422C186.851,223.422 188.162,223.144 189.378,222.6L189.378,222.726C188.137,223.278 186.762,223.562 185.374,223.526L185.374,223.419ZM185.374,224.089C186.754,224.131 188.132,223.873 189.378,223.338L189.378,224.081C188.228,224.673 186.873,225.073 185.374,225.005L185.374,224.089ZM185.374,225.398C186.783,225.446 188.159,225.175 189.378,224.653L189.378,224.906C188.161,225.424 186.786,225.694 185.374,225.647L185.374,225.398ZM185.374,225.941C186.789,225.985 188.164,225.715 189.378,225.202L189.378,225.448C188.17,225.961 186.797,226.238 185.374,226.197L185.374,225.941ZM185.374,226.973C186.8,226.997 188.173,226.725 189.378,226.229L189.378,226.495C188.169,226.974 186.799,227.254 185.374,227.269L185.374,226.973ZM185.374,227.359C186.768,227.337 188.146,227.059 189.378,226.574L189.378,226.608C188.165,227.075 186.796,227.349 185.374,227.373L185.374,227.359ZM185.374,227.578C185.521,227.575 185.67,227.568 185.821,227.559C187.077,227.482 188.288,227.214 189.378,226.803L189.378,226.917C188.161,227.362 186.795,227.634 185.374,227.677L185.374,227.578ZM185.374,228.062C186.77,228.014 188.134,227.777 189.378,227.378L189.378,227.506C188.129,227.892 186.766,228.122 185.374,228.171L185.374,228.062ZM185.374,228.286C185.412,228.285 185.45,228.283 185.488,228.281C186.81,228.221 188.142,227.99 189.378,227.616L189.378,227.677C188.139,228.044 186.779,228.276 185.374,228.33L185.374,228.286ZM185.374,228.693C186.699,228.643 188.063,228.463 189.378,228.14L189.378,228.684C188.856,228.786 188.326,228.872 187.792,228.941C187.535,228.976 187.28,229.005 187.029,229.027C186.48,229.08 185.927,229.115 185.374,229.131L185.374,229.089C185.384,229.089 185.395,229.089 185.405,229.088C185.395,229.088 185.384,229.088 185.374,229.088L185.374,228.693ZM185.374,229.236C186.798,229.194 188.151,229.031 189.378,228.804L189.378,228.987C187.962,229.236 186.628,229.347 185.374,229.358L185.374,229.236ZM185.374,229.734C186.564,229.714 187.88,229.608 189.378,229.384L189.378,229.766C187.871,229.896 186.558,229.951 185.374,229.952L185.374,229.734ZM185.374,230.103C186.564,230.098 187.879,230.056 189.378,229.963L189.378,230.108C187.87,230.172 186.557,230.198 185.374,230.197L185.374,230.103ZM185.374,230.451C186.558,230.449 187.879,230.443 189.378,230.432L189.378,230.501L185.374,230.501L185.374,230.451ZM185.374,230.616L189.378,230.616L189.378,231.301L185.374,231.301L185.374,230.616ZM175.974,230.616L175.706,231.301L175.435,230.616L175.974,230.616ZM150.951,230.501L146.947,230.501L146.947,230.387C147.773,230.385 148.978,230.383 150.951,230.379L150.951,230.501ZM150.951,229.824C149.815,229.821 148.518,229.826 146.947,229.848L146.947,229.598C148.548,229.578 149.809,229.595 150.951,229.622L150.951,229.824ZM150.951,229.201C149.816,229.194 148.52,229.203 146.947,229.244L146.947,228.523C148.551,228.482 149.811,228.522 150.951,228.585L150.951,229.201ZM150.951,228.081C149.597,227.993 148.251,227.918 146.947,227.916L146.947,227.643C148.417,227.626 149.701,227.727 150.951,227.848L150.951,228.081ZM150.951,227.624C149.65,227.523 148.274,227.439 146.947,227.44L146.947,227.325C148.266,227.324 149.611,227.414 150.951,227.524L150.951,227.624ZM150.951,227.406C149.61,227.301 148.233,227.215 146.947,227.211L146.947,226.421C148.552,226.347 149.814,226.447 150.951,226.594L150.951,227.406ZM150.951,225.906C149.61,225.743 148.259,225.612 146.947,225.617L146.947,225.503C148.267,225.498 149.613,225.635 150.951,225.804L150.951,225.906ZM150.951,225.592C149.629,225.408 148.294,225.258 146.947,225.268L146.947,225.028C148.257,225.025 149.606,225.172 150.951,225.353L150.951,225.592ZM150.951,224.456C149.611,224.247 148.257,224.082 146.947,224.09L146.947,223.841C148.256,223.835 149.607,224.008 150.951,224.224L150.951,224.456ZM150.951,223.816C149.809,223.613 148.384,223.406 146.947,223.42L146.947,223.308C148.259,223.299 149.61,223.485 150.951,223.717L150.951,223.816ZM150.951,223.536C149.76,223.23 148.477,222.995 146.947,223.071L146.947,222.358C148.438,222.288 149.732,222.538 150.951,222.862L150.951,223.536ZM150.951,222.285C149.604,222.017 148.252,221.781 146.947,221.736L146.947,221.53C148.251,221.593 149.603,221.838 150.951,222.108L150.951,222.285ZM150.951,221.902C149.597,221.63 148.243,221.375 146.947,221.289L146.947,221.085C148.239,221.188 149.594,221.452 150.951,221.726L150.951,221.902ZM150.951,221.324C149.771,220.996 148.482,220.683 146.947,220.576L146.947,220.078C148.175,220.269 149.548,220.563 150.951,220.833L150.951,221.324ZM150.951,220.416C150.777,220.381 150.599,220.344 150.418,220.306C149.966,220.21 148.45,219.855 146.947,219.591L146.947,219.497C148.22,219.733 149.579,220.059 150.951,220.344L150.951,220.416ZM150.951,220.232C149.76,219.926 148.455,219.589 146.947,219.336L146.947,218.82C148.154,219.107 149.529,219.453 150.951,219.735L150.951,220.232ZM150.951,219.243C149.668,218.958 148.332,218.596 146.947,218.231L146.947,218.032C148.352,218.422 149.686,218.785 150.951,219.063L150.951,219.243ZM150.951,218.592C149.508,218.298 148.126,217.901 146.947,217.524L146.947,217.43C148.444,217.915 149.77,218.272 150.951,218.52L150.951,218.592ZM150.951,218.254C149.439,217.946 148.038,217.522 146.947,217.147L146.947,217.056C148.067,217.449 149.459,217.875 150.951,218.18L150.951,218.254ZM150.951,218.061C149.539,217.774 148.168,217.365 146.947,216.926L146.947,216.73C148.374,217.261 150.014,217.739 151.685,218.02L150.951,218.02L150.951,218.061ZM152.589,218.02C150.955,217.878 149.08,217.433 146.947,216.536L146.947,215.936C148.215,216.478 149.581,216.886 150.951,217.143L150.951,217.532L154.661,217.532C155.395,217.532 156.028,217.431 156.6,217.271C158.148,216.996 159.462,216.423 160.327,215.514C161.412,214.373 162.644,213.388 163.976,212.653C163.935,212.891 163.872,213.128 163.787,213.366C162.932,213.775 162.147,214.301 161.476,214.952C160.743,215.662 158.671,217.672 154.903,218.02L152.589,218.02ZM146.947,215.397L146.947,215.271C148.167,215.753 149.539,216.159 150.951,216.422L150.951,216.561C149.548,216.297 148.176,215.89 146.947,215.397ZM150.951,216.179C149.543,215.924 148.173,215.53 146.947,215.057L146.947,214.778C148.179,215.236 149.548,215.617 150.951,215.863L150.951,216.179ZM150.951,215.46C149.614,215.246 148.256,214.905 146.947,214.435L146.947,213.664C148.398,214.163 149.726,214.48 150.951,214.654L150.951,215.46ZM150.951,213.788C149.583,213.601 148.224,213.308 146.947,212.942L146.947,212.664C148.234,213.016 149.591,213.295 150.951,213.473L150.951,213.788ZM150.951,213.02C149.74,212.876 148.414,212.623 146.947,212.232L146.947,211.43C148.426,211.761 149.751,211.978 150.951,212.104L150.951,213.02ZM150.951,210.978C149.428,210.847 148.033,210.65 146.947,210.471L146.947,210.203C148.428,210.437 149.753,210.594 150.951,210.688L150.951,210.978ZM150.951,210.337C149.467,210.227 148.053,210.057 146.947,209.903L146.947,209.631C148.419,209.82 149.747,209.947 150.951,210.026L150.951,210.337ZM150.951,209.155C149.767,209.099 148.444,209.006 146.947,208.869L146.947,208.08C148.422,208.156 149.748,208.208 150.951,208.24L150.951,209.155ZM150.951,207.579C149.772,207.563 148.449,207.538 146.947,207.501L146.947,207.378C148.451,207.405 149.771,207.422 150.951,207.432L150.951,207.579ZM150.951,207.3C149.765,207.292 148.441,207.279 146.947,207.26L146.947,206.987L150.951,206.987L150.951,207.3ZM156.906,206.987L160.362,206.987C160.536,207.063 160.704,207.145 160.867,207.232C159.843,207.255 158.801,207.277 157.568,207.292C157.37,207.165 157.144,207.067 156.906,206.987ZM166.093,206.987L170.385,206.987L170.442,207.131C169.564,207.126 168.645,207.125 167.672,207.129C167.132,207.131 166.628,207.134 166.153,207.138L166.093,206.987ZM184.64,206.987L185.199,206.987L185.059,207.346C184.871,207.346 184.685,207.346 184.501,207.345L184.64,206.987ZM160.52,230.501L157.365,230.501C157.502,230.46 157.634,230.415 157.761,230.366C158.712,230.364 159.743,230.361 160.86,230.359C160.748,230.408 160.634,230.456 160.52,230.501ZM184.998,207.502L184.936,207.662C184.748,207.662 184.562,207.661 184.378,207.659L184.44,207.5C184.624,207.501 184.81,207.502 184.998,207.502ZM184.638,208.425L184.243,209.437C184.058,209.431 183.875,209.424 183.693,209.417L184.084,208.415C184.267,208.419 184.451,208.423 184.638,208.425ZM183.856,210.428L183.684,210.868C183.502,210.855 183.323,210.84 183.145,210.823L183.313,210.392C183.493,210.406 183.673,210.418 183.856,210.428ZM183.561,211.184L183.436,211.503C183.256,211.488 183.077,211.471 182.9,211.453L183.016,211.155C183.185,211.166 183.367,211.176 183.561,211.184ZM182.987,212.654L182.62,213.593C182.449,213.558 182.279,213.521 182.109,213.481L182.463,212.574C182.636,212.603 182.811,212.63 182.987,212.654ZM182.358,214.265L182.226,214.602C182.053,214.574 181.88,214.543 181.709,214.509L181.837,214.18C182.01,214.211 182.183,214.24 182.358,214.265ZM181.909,215.414L181.558,216.314C181.39,216.27 181.225,216.223 181.06,216.172L181.403,215.293C181.565,215.335 181.734,215.376 181.909,215.414ZM181.403,216.711L181.279,217.028C181.119,216.971 180.959,216.91 180.799,216.843L180.913,216.551C181.075,216.609 181.238,216.662 181.403,216.711ZM181.201,217.228L181.153,217.352C180.991,217.295 180.831,217.233 180.672,217.167L180.72,217.045C180.875,217.109 181.036,217.171 181.201,217.228ZM180.948,217.876L180.787,218.288C180.635,218.201 180.486,218.11 180.341,218.018L180.479,217.663C180.634,217.738 180.79,217.809 180.948,217.876ZM180.648,218.644L180.564,218.858C180.415,218.772 180.266,218.682 180.12,218.586L180.206,218.365C180.353,218.464 180.501,218.557 180.648,218.644ZM180.516,218.983L180.484,219.064C180.335,218.975 180.188,218.881 180.043,218.782L180.073,218.706C180.218,218.803 180.366,218.895 180.516,218.983ZM180.387,219.312L180.352,219.403C180.205,219.308 180.061,219.208 179.918,219.102L179.952,219.016C180.091,219.116 180.236,219.215 180.387,219.312ZM180.176,219.854L180.108,220.026C179.967,219.919 179.828,219.806 179.69,219.689L179.753,219.526C179.892,219.641 180.033,219.75 180.176,219.854ZM179.917,220.517L179.763,220.911C179.628,220.792 179.493,220.668 179.358,220.539L179.506,220.159C179.641,220.283 179.778,220.403 179.917,220.517ZM179.685,221.109L179.655,221.188C179.542,221.065 179.416,220.918 179.275,220.753L179.283,220.732C179.411,220.857 179.545,220.984 179.685,221.109ZM179.47,221.66L179.299,222.1C179.166,221.976 179.033,221.848 178.9,221.715L179.079,221.257C179.206,221.397 179.337,221.531 179.47,221.66ZM179.08,222.661L178.995,222.878C178.873,222.759 178.752,222.636 178.633,222.508C178.623,222.498 178.613,222.487 178.603,222.476L178.688,222.258C178.694,222.265 178.7,222.271 178.705,222.277C178.828,222.409 178.953,222.537 179.08,222.661ZM178.893,223.14L178.805,223.366C178.672,223.239 178.54,223.107 178.411,222.97L178.504,222.73C178.64,222.878 178.769,223.015 178.893,223.14ZM178.489,224.173L178.242,224.807C178.103,224.696 177.966,224.58 177.83,224.46L178.092,223.789C178.223,223.921 178.355,224.05 178.489,224.173ZM178.191,224.938L178.155,225.029C178.015,224.921 177.876,224.81 177.739,224.694L177.775,224.602C177.904,224.711 178.043,224.824 178.191,224.938ZM178.037,225.331L177.964,225.519C177.764,225.38 177.567,225.233 177.373,225.078C176.141,224.101 174.605,222.081 171.796,221.412L171.657,221.06C173.06,221.353 174.45,222.02 175.726,223.239C175.824,223.332 176.362,224.001 177.323,224.787L177.464,225.149L177.562,225.149L177.613,225.017C177.747,225.121 177.889,225.226 178.037,225.331ZM177.716,226.153L177.654,226.312C177.324,226.112 177.003,225.896 176.694,225.661C175.185,224.517 173.887,223.699 172.522,223.247L172.375,222.874C173.713,223.329 175.091,224.161 176.693,225.432C177.021,225.693 177.363,225.933 177.716,226.153ZM177.603,226.443L177.584,226.491C175.982,225.532 174.658,224.361 172.728,223.768L172.667,223.615C173.672,223.892 174.659,224.345 175.6,225.03C175.682,225.09 176.367,225.739 177.603,226.443ZM177.139,227.631L177.109,227.707C177.075,227.692 177.042,227.677 177.008,227.662C175.836,227.134 174.816,226.725 173.787,226.448L173.27,225.139C174.827,225.599 176.075,226.329 177.386,226.999L177.25,227.346C176.496,227.104 175.739,226.864 174.969,226.648C175.278,226.759 175.583,226.884 175.885,227.024C176.031,227.092 176.455,227.335 177.139,227.631ZM177.047,227.868L176.976,228.048C175.907,227.738 174.946,227.43 174.084,227.198L173.919,226.78C174.873,227.034 175.868,227.397 177.047,227.868ZM176.775,228.563L176.551,229.137C175.985,229.07 175.398,229.007 174.777,228.952L174.457,228.142C175.273,228.265 176.036,228.411 176.775,228.563ZM176.389,229.552L176.306,229.766C175.907,229.743 175.498,229.721 175.074,229.702L174.971,229.443C175.46,229.476 175.93,229.513 176.389,229.552ZM176.067,230.378L176.019,230.501L175.39,230.501L175.337,230.368C175.583,230.371 175.825,230.374 176.067,230.378ZM158.669,229.875C158.748,229.817 158.824,229.756 158.897,229.692C159.907,229.665 161.049,229.621 162.374,229.555C162.241,229.642 162.098,229.73 161.945,229.817C160.691,229.85 159.625,229.867 158.669,229.875ZM159.304,229.283C159.484,229.085 159.646,228.881 159.791,228.671C160.973,228.577 162.33,228.434 163.926,228.225C163.639,228.555 163.323,228.854 162.976,229.123C161.552,229.208 160.358,229.258 159.304,229.283ZM160.108,228.148C160.158,228.052 160.205,227.954 160.249,227.854C160.809,227.769 161.398,227.665 162.019,227.539C163.026,227.335 163.938,227.157 164.771,227.005C164.755,227.037 164.737,227.07 164.72,227.102C164.677,227.177 164.633,227.251 164.588,227.324C162.874,227.62 161.35,227.96 160.111,228.148C160.11,228.148 160.109,228.148 160.108,228.148ZM160.321,227.681C160.338,227.638 160.354,227.595 160.37,227.552C161.652,227.283 163.245,226.856 164.996,226.503C164.973,226.563 164.948,226.623 164.923,226.682C164.168,226.829 163.353,227.001 162.467,227.199C161.805,227.348 161.145,227.53 160.321,227.681ZM160.413,227.427C160.416,227.416 160.42,227.406 160.423,227.395C160.502,227.151 160.566,226.873 160.619,226.579C161.554,226.372 162.593,226.098 163.762,225.743C164.304,225.578 164.821,225.435 165.316,225.311C165.259,225.667 165.173,226.007 165.06,226.33C163.454,226.685 162.006,227.123 160.413,227.427ZM160.719,225.874C160.724,225.827 160.729,225.779 160.734,225.731C161.892,225.273 163.531,224.536 165.4,223.986C165.402,224.04 165.403,224.094 165.404,224.148C164.58,224.388 163.687,224.691 162.718,225.065C162.109,225.299 161.489,225.606 160.719,225.874ZM160.753,225.521C160.76,225.441 160.766,225.362 160.772,225.283C162.517,224.501 164.011,223.857 165.345,223.382C165.361,223.49 165.374,223.598 165.384,223.708C164.128,224.116 162.712,224.673 161.077,225.387C160.969,225.434 160.861,225.478 160.753,225.521ZM160.811,224.395C160.813,224.304 160.813,224.213 160.814,224.125C161.387,223.764 162.914,222.742 164.897,221.94C164.943,222.036 164.987,222.134 165.027,222.232C164.141,222.581 163.19,223.03 162.167,223.593C161.865,223.759 161.442,224.081 160.811,224.395ZM160.806,223.675C160.806,223.66 160.805,223.645 160.804,223.631C161.761,223.022 163.068,222.134 164.595,221.395C164.604,221.41 164.613,221.424 164.622,221.438C164.636,221.46 164.649,221.481 164.662,221.503C163.864,221.866 163.022,222.318 162.133,222.874C161.647,223.179 161.215,223.446 160.806,223.675ZM160.787,223.326C160.77,223.108 160.747,222.897 160.716,222.691C161.162,222.44 161.626,222.146 162.109,221.805C162.753,221.35 163.375,220.957 163.975,220.619C164.158,220.809 164.324,221.008 164.472,221.215C163.847,221.521 163.199,221.886 162.528,222.318C161.914,222.713 161.335,223.047 160.787,223.326ZM160.613,222.135C160.597,222.066 160.581,221.998 160.563,221.931C160.603,221.903 160.642,221.875 160.682,221.845C161.62,221.147 162.51,220.556 163.356,220.06C163.413,220.105 163.469,220.151 163.524,220.197C162.623,220.721 161.677,221.348 160.68,222.086C160.658,222.102 160.635,222.119 160.613,222.135ZM160.498,221.695C160.478,221.629 160.458,221.564 160.437,221.499C160.52,221.442 160.603,221.383 160.684,221.32C161.464,220.721 162.217,220.204 162.944,219.76C163.009,219.804 163.073,219.848 163.135,219.893C162.352,220.362 161.535,220.914 160.683,221.561C160.622,221.607 160.56,221.652 160.498,221.695ZM160.212,220.919C160.161,220.806 160.107,220.695 160.05,220.587C160.126,220.537 160.2,220.484 160.273,220.429C160.865,219.978 161.441,219.569 162.001,219.199C162.161,219.285 162.318,219.373 162.473,219.464C162.256,219.601 162.046,219.741 161.846,219.882C161.27,220.287 160.727,220.631 160.212,220.919ZM159.778,220.128C159.771,220.118 159.764,220.107 159.757,220.097C160.085,219.913 160.398,219.697 160.694,219.443C160.92,219.249 161.148,219.063 161.377,218.886C161.394,218.894 161.41,218.902 161.427,218.91C160.838,219.36 160.335,219.78 159.778,220.128ZM159.592,219.865C159.545,219.802 159.496,219.741 159.447,219.68C159.41,219.635 159.372,219.591 159.333,219.548C159.674,219.385 159.993,219.19 160.289,218.96C160.442,218.84 160.594,218.724 160.745,218.61C160.902,218.674 161.058,218.741 161.213,218.811C160.646,219.23 160.108,219.579 159.592,219.865ZM158.85,219.087C158.791,219.039 158.731,218.993 158.67,218.948C159.083,218.771 159.485,218.555 159.875,218.294C159.895,218.3 159.915,218.307 159.935,218.313C159.99,218.331 160.046,218.35 160.101,218.369C159.695,218.656 159.278,218.893 158.85,219.087ZM158.124,218.613C158.071,218.585 158.017,218.559 157.962,218.533C158.356,218.4 158.714,218.243 159.045,218.069C159.114,218.085 159.183,218.101 159.252,218.118C158.918,218.307 158.549,218.475 158.124,218.613ZM157.567,218.37C157.511,218.35 157.455,218.331 157.399,218.312C157.781,218.22 158.152,218.103 158.51,217.958C158.562,217.968 158.614,217.978 158.666,217.988C158.339,218.135 157.976,218.263 157.567,218.37ZM157.127,218.233C156.967,218.19 156.801,218.154 156.63,218.124C157.041,218.055 157.441,217.963 157.826,217.843C157.968,217.864 158.11,217.887 158.251,217.912C157.89,218.044 157.514,218.15 157.127,218.233ZM158.593,216.073C158.633,216.016 158.671,215.958 158.709,215.897C159.457,215.558 160.133,215.106 160.707,214.524C160.737,214.493 161.722,213.082 164.034,212.098C164.034,212.116 164.033,212.135 164.032,212.153C161.627,213.249 160.776,215.046 158.593,216.073ZM168.178,212.26L167.815,211.341C169.251,211.142 170.743,211.259 172.252,211.777L172.588,212.638C171.211,212.292 169.688,212.154 168.178,212.26ZM159.465,217.109C159.918,216.831 160.336,216.496 160.711,216.099C161.614,215.142 162.585,214.4 163.59,213.841C163.547,213.932 163.5,214.023 163.451,214.114C163.425,214.16 163.4,214.206 163.373,214.251C162.414,214.804 161.514,215.5 160.71,216.34C160.536,216.52 160.354,216.688 160.164,216.843C159.996,216.912 159.822,216.979 159.642,217.044C159.583,217.066 159.524,217.088 159.465,217.109ZM158.888,215.582C158.954,215.456 159.015,215.325 159.07,215.194C159.671,214.899 160.22,214.531 160.7,214.08C161.736,213.108 162.863,212.369 164.035,211.842C164.036,211.883 164.036,211.924 164.036,211.965C164.036,211.974 164.036,211.982 164.036,211.99C162.898,212.52 161.773,213.282 160.704,214.332C160.177,214.85 159.564,215.263 158.888,215.582ZM159.229,214.769C159.237,214.746 159.244,214.723 159.251,214.7C159.364,214.339 159.468,213.909 159.541,213.459C161.166,212.762 162.591,211.934 163.992,211.318C164.009,211.439 164.021,211.561 164.028,211.685C162.829,212.238 161.576,213.025 160.281,214.101C159.977,214.353 159.624,214.576 159.229,214.769ZM159.601,213.018C159.612,212.919 159.621,212.819 159.628,212.721C159.996,212.56 160.345,212.378 160.672,212.172C161.744,211.498 162.803,210.992 163.838,210.624C163.854,210.674 163.868,210.725 163.882,210.776C162.831,211.164 161.758,211.702 160.675,212.424C160.34,212.648 159.981,212.845 159.601,213.018ZM159.642,212.057C159.633,211.818 159.612,211.561 159.579,211.296C160.951,210.876 162.221,210.389 163.604,209.995C163.619,210.034 163.633,210.072 163.646,210.11C163.699,210.228 163.746,210.348 163.788,210.47C162.413,210.941 161.097,211.542 159.642,212.057ZM159.456,210.528C159.434,210.416 159.41,210.305 159.384,210.195C160.719,209.904 161.916,209.554 163.19,209.26C163.221,209.303 163.252,209.347 163.28,209.39C161.553,209.791 160.283,210.281 159.456,210.528ZM159.333,209.985C159.307,209.884 159.28,209.785 159.251,209.689C160.717,209.429 161.841,209.106 162.889,208.88C162.961,208.963 163.027,209.044 163.09,209.125C162.161,209.305 161.18,209.527 160.14,209.799C159.877,209.868 159.607,209.93 159.333,209.985ZM158.959,208.913C158.837,208.651 158.692,208.395 158.521,208.159C159.77,208.087 160.844,207.992 161.879,207.898C161.983,207.981 162.083,208.067 162.181,208.157C162.28,208.248 162.375,208.338 162.465,208.427C161.245,208.593 160.139,208.769 158.959,208.913ZM157.942,207.55C157.87,207.493 157.794,207.44 157.715,207.391C158.834,207.367 159.883,207.337 161.005,207.307C161.076,207.347 161.146,207.389 161.215,207.431C160.137,207.475 159.109,207.518 157.942,207.55ZM166.18,207.207C167.121,207.197 168.156,207.19 169.317,207.188C169.705,207.187 170.087,207.188 170.465,207.191L170.49,207.256C169.422,207.243 168.305,207.243 167.117,207.259C166.802,207.264 166.499,207.268 166.207,207.274L166.18,207.207ZM170.613,207.571L170.774,207.984C169.588,207.919 168.356,207.908 167.049,207.981C166.862,207.992 166.679,208.003 166.5,208.015L166.326,207.575C167.364,207.535 168.516,207.522 169.871,207.552C170.122,207.557 170.369,207.564 170.613,207.571ZM170.944,208.421L170.996,208.554C169.709,208.467 168.305,208.468 166.733,208.606L166.648,208.389C168.193,208.286 169.61,208.313 170.944,208.421ZM171.058,208.713L171.116,208.861C169.536,208.723 168.107,208.735 166.825,208.838L166.767,208.691C167.363,208.645 167.997,208.621 168.681,208.624C169.554,208.629 170.341,208.661 171.058,208.713ZM171.335,209.422L171.545,209.962C170.441,209.748 169.278,209.629 168.027,209.656C167.733,209.662 167.447,209.679 167.168,209.705L167.02,209.33C167.867,209.247 168.784,209.219 169.8,209.266C170.32,209.29 170.831,209.344 171.335,209.422ZM171.598,210.098L171.663,210.265C170.328,209.977 168.851,209.842 167.282,209.994L167.231,209.863C168.797,209.71 170.268,209.83 171.598,210.098ZM171.813,210.649L171.956,211.016C170.65,210.632 169.168,210.445 167.542,210.652L167.444,210.403C169.108,210.258 170.555,210.376 171.813,210.649ZM172.044,211.243L172.122,211.443C170.778,211.069 169.261,210.874 167.686,211.015L167.631,210.876C169.134,210.721 170.634,210.857 172.044,211.243ZM172.157,211.532L172.186,211.608C171.045,211.317 169.705,211.162 168.149,211.249C168.026,211.256 167.906,211.264 167.788,211.273L167.764,211.212C167.886,211.203 168.009,211.194 168.135,211.187C169.701,211.101 171.037,211.255 172.157,211.532ZM172.703,212.934L172.78,213.132C171.363,212.702 169.851,212.552 168.346,212.685L168.255,212.455C169.815,212.338 171.337,212.534 172.703,212.934ZM172.854,213.322L172.898,213.434C171.653,213.065 170.193,212.884 168.483,213.031L168.441,212.924C170.15,212.776 171.609,212.955 172.854,213.322ZM168.627,213.396C170.113,213.289 171.629,213.413 173.043,213.805L173.085,213.915C171.84,213.533 170.378,213.343 168.662,213.485L168.627,213.396ZM173.331,214.544L173.43,214.799C171.962,214.318 170.447,214.197 168.991,214.315L168.899,214.083C170.353,213.961 171.866,214.077 173.331,214.544ZM173.712,215.522L174.023,216.319C172.605,215.8 171.071,215.6 169.527,215.672L169.173,214.778C170.788,214.631 172.287,214.898 173.712,215.522ZM169.571,215.784C171.194,215.729 172.733,215.993 174.097,216.51L174.139,216.618C172.872,216.088 171.371,215.767 169.6,215.857L169.571,215.784ZM174.382,217.242L174.696,218.047C173.211,217.302 171.631,217.013 170.069,217.043L169.755,216.249C171.528,216.162 173.054,216.565 174.382,217.242ZM174.982,218.782L175.111,219.111C173.858,218.296 172.27,217.659 170.303,217.636L170.225,217.437C172.141,217.453 173.723,218.03 174.982,218.782ZM175.288,219.567L175.451,219.984C173.957,218.824 172.334,218.131 170.472,218.063L170.391,217.858C172.414,217.894 174.007,218.627 175.288,219.567ZM176.015,221.433L176.704,223.2C175.68,222.094 173.876,220.515 171.253,220.036L170.806,218.907C173.102,219.155 174.817,220.306 176.015,221.433ZM176.951,223.832L177.036,224.05C177.015,224.03 176.994,224.009 176.974,223.988C176.37,223.38 174.662,221.017 171.398,220.405L171.323,220.214C173.024,220.547 174.768,221.46 176.456,223.275C176.469,223.29 176.635,223.506 176.951,223.832ZM160.684,216.609C160.63,216.635 160.574,216.662 160.518,216.688C160.582,216.627 160.646,216.564 160.709,216.499C160.737,216.469 161.513,215.385 163.276,214.411C163.238,214.472 163.199,214.531 163.159,214.59C162.109,215.224 161.418,215.947 160.684,216.609Z"/>
            </g>
            <g transform="matrix(7.49387,0,0,9.47482,-464.768,-1883.03)">
                <path d="M146.947,206.106L150.755,206.106C150.885,206.106 151.829,206.112 152.025,206.112L154.368,206.112C156.387,206.112 158.014,206.204 159.251,206.594C159.475,206.657 159.692,206.726 159.902,206.802L156.235,206.802C156.066,206.763 155.898,206.728 155.736,206.692C155.068,206.546 154.596,206.497 153.685,206.497L152.22,206.497C151.634,206.497 150.951,206.509 150.951,206.509L150.951,206.802L146.947,206.802L146.947,206.106ZM165.745,206.106L170.042,206.106L170.313,206.802L166.02,206.802L165.745,206.106ZM184.983,206.106L189.378,206.106L189.378,206.802L185.374,206.802L185.374,206.79L185.276,206.79L185.271,206.802L184.712,206.802L184.983,206.106ZM154.433,231.312L152.187,231.312L150.853,231.301L146.947,231.301L146.947,230.616L150.951,230.616L150.951,230.905L152.025,230.911L153.685,230.911C154.987,230.911 156.061,230.813 156.908,230.618C156.91,230.617 156.913,230.617 156.916,230.616L160.218,230.616C159.892,230.735 159.565,230.836 159.251,230.911C157.879,231.238 156.061,231.312 154.433,231.312ZM185.374,206.987L189.378,206.987L189.378,207.316C187.937,207.338 186.615,207.347 185.374,207.347L185.374,206.987ZM185.374,207.502C186.624,207.502 187.95,207.489 189.378,207.458L189.378,207.606C187.947,207.646 186.622,207.663 185.374,207.663L185.374,207.502ZM185.374,208.431C186.613,208.433 187.932,208.397 189.378,208.307L189.378,209.245C187.955,209.393 186.629,209.454 185.374,209.454L185.374,208.431ZM185.374,210.472C186.62,210.472 187.944,210.383 189.378,210.168L189.378,210.53C187.91,210.793 186.591,210.909 185.374,210.92L185.374,210.472ZM185.374,211.199C186.534,211.169 187.895,211.062 189.378,210.808L189.378,211.167C187.959,211.442 186.628,211.563 185.374,211.574L185.374,211.199ZM185.374,212.817C186.626,212.812 187.953,212.66 189.378,212.304L189.378,213.275C187.941,213.707 186.619,213.885 185.374,213.883L185.374,212.817ZM185.374,214.399C186.714,214.33 188.065,214.096 189.378,213.704L189.378,214.032C188.066,214.442 186.715,214.688 185.374,214.761L185.374,214.399ZM185.374,215.711C186.599,215.654 187.948,215.42 189.378,214.902L189.378,215.777C188.062,216.282 186.708,216.576 185.374,216.662L185.374,215.711ZM185.374,217.131C186.729,217.037 188.085,216.714 189.378,216.191L189.378,216.497C188.187,217.011 186.825,217.418 185.374,217.539L185.374,217.131ZM189.378,216.778L189.378,216.907C188.083,217.46 186.725,217.797 185.374,217.894L185.374,217.764C186.59,217.676 187.968,217.378 189.378,216.778ZM185.374,218.584C186.712,218.494 188.071,218.151 189.378,217.557L189.378,218.615C187.969,219.341 186.625,219.628 185.374,219.621L185.374,218.584ZM185.374,219.833C186.849,219.748 188.213,219.282 189.378,218.694L189.378,219.008C188.104,219.6 186.74,219.947 185.374,220.004L185.374,219.833ZM185.374,220.174C186.728,220.126 188.093,219.796 189.378,219.202L189.378,219.329C188.095,219.922 186.729,220.251 185.374,220.294L185.374,220.174ZM189.378,219.735L189.378,219.867C188.102,220.456 186.735,220.778 185.374,220.807L185.374,220.695C185.406,220.694 185.439,220.693 185.471,220.692C186.691,220.649 188.05,220.348 189.378,219.735ZM185.374,221.528C186.757,221.515 188.126,221.184 189.378,220.602L189.378,220.881C188.129,221.46 186.76,221.788 185.374,221.794L185.374,221.528ZM185.374,222.507C186.76,222.521 188.132,222.214 189.378,221.648L189.378,222.429C188.229,223.037 186.874,223.467 185.374,223.417L185.374,222.507ZM185.374,223.419C185.448,223.421 185.523,223.422 185.599,223.422C186.851,223.422 188.162,223.144 189.378,222.6L189.378,222.726C188.137,223.278 186.762,223.562 185.374,223.526L185.374,223.419ZM185.374,224.089C186.754,224.131 188.132,223.873 189.378,223.338L189.378,224.081C188.228,224.673 186.873,225.073 185.374,225.005L185.374,224.089ZM185.374,225.398C186.783,225.446 188.159,225.175 189.378,224.653L189.378,224.906C188.161,225.424 186.786,225.694 185.374,225.647L185.374,225.398ZM185.374,225.941C186.789,225.985 188.164,225.715 189.378,225.202L189.378,225.448C188.17,225.961 186.797,226.238 185.374,226.197L185.374,225.941ZM185.374,226.973C186.8,226.997 188.173,226.725 189.378,226.229L189.378,226.495C188.169,226.974 186.799,227.254 185.374,227.269L185.374,226.973ZM185.374,227.359C186.768,227.337 188.146,227.059 189.378,226.574L189.378,226.608C188.165,227.075 186.796,227.349 185.374,227.373L185.374,227.359ZM185.374,227.578C185.521,227.575 185.67,227.568 185.821,227.559C187.077,227.482 188.288,227.214 189.378,226.803L189.378,226.917C188.161,227.362 186.795,227.634 185.374,227.677L185.374,227.578ZM185.374,228.062C186.77,228.014 188.134,227.777 189.378,227.378L189.378,227.506C188.129,227.892 186.766,228.122 185.374,228.171L185.374,228.062ZM185.374,228.286C185.412,228.285 185.45,228.283 185.488,228.281C186.81,228.221 188.142,227.99 189.378,227.616L189.378,227.677C188.139,228.044 186.779,228.276 185.374,228.33L185.374,228.286ZM185.374,228.693C186.699,228.643 188.063,228.463 189.378,228.14L189.378,228.684C188.856,228.786 188.326,228.872 187.792,228.941C187.535,228.976 187.28,229.005 187.029,229.027C186.48,229.08 185.927,229.115 185.374,229.131L185.374,229.089C185.384,229.089 185.395,229.089 185.405,229.088C185.395,229.088 185.384,229.088 185.374,229.088L185.374,228.693ZM185.374,229.236C186.798,229.194 188.151,229.031 189.378,228.804L189.378,228.987C187.962,229.236 186.628,229.347 185.374,229.358L185.374,229.236ZM185.374,229.734C186.564,229.714 187.88,229.608 189.378,229.384L189.378,229.766C187.871,229.896 186.558,229.951 185.374,229.952L185.374,229.734ZM185.374,230.103C186.564,230.098 187.879,230.056 189.378,229.963L189.378,230.108C187.87,230.172 186.557,230.198 185.374,230.197L185.374,230.103ZM185.374,230.451C186.558,230.449 187.879,230.443 189.378,230.432L189.378,230.501L185.374,230.501L185.374,230.451ZM185.374,230.616L189.378,230.616L189.378,231.301L185.374,231.301L185.374,230.616ZM175.974,230.616L175.706,231.301L175.435,230.616L175.974,230.616ZM150.951,230.501L146.947,230.501L146.947,230.387C147.773,230.385 148.978,230.383 150.951,230.379L150.951,230.501ZM150.951,229.824C149.815,229.821 148.518,229.826 146.947,229.848L146.947,229.598C148.548,229.578 149.809,229.595 150.951,229.622L150.951,229.824ZM150.951,229.201C149.816,229.194 148.52,229.203 146.947,229.244L146.947,228.523C148.551,228.482 149.811,228.522 150.951,228.585L150.951,229.201ZM150.951,228.081C149.597,227.993 148.251,227.918 146.947,227.916L146.947,227.643C148.417,227.626 149.701,227.727 150.951,227.848L150.951,228.081ZM150.951,227.624C149.65,227.523 148.274,227.439 146.947,227.44L146.947,227.325C148.266,227.324 149.611,227.414 150.951,227.524L150.951,227.624ZM150.951,227.406C149.61,227.301 148.233,227.215 146.947,227.211L146.947,226.421C148.552,226.347 149.814,226.447 150.951,226.594L150.951,227.406ZM150.951,225.906C149.61,225.743 148.259,225.612 146.947,225.617L146.947,225.503C148.267,225.498 149.613,225.635 150.951,225.804L150.951,225.906ZM150.951,225.592C149.629,225.408 148.294,225.258 146.947,225.268L146.947,225.028C148.257,225.025 149.606,225.172 150.951,225.353L150.951,225.592ZM150.951,224.456C149.611,224.247 148.257,224.082 146.947,224.09L146.947,223.841C148.256,223.835 149.607,224.008 150.951,224.224L150.951,224.456ZM150.951,223.816C149.809,223.613 148.384,223.406 146.947,223.42L146.947,223.308C148.259,223.299 149.61,223.485 150.951,223.717L150.951,223.816ZM150.951,223.536C149.76,223.23 148.477,222.995 146.947,223.071L146.947,222.358C148.438,222.288 149.732,222.538 150.951,222.862L150.951,223.536ZM150.951,222.285C149.604,222.017 148.252,221.781 146.947,221.736L146.947,221.53C148.251,221.593 149.603,221.838 150.951,222.108L150.951,222.285ZM150.951,221.902C149.597,221.63 148.243,221.375 146.947,221.289L146.947,221.085C148.239,221.188 149.594,221.452 150.951,221.726L150.951,221.902ZM150.951,221.324C149.771,220.996 148.482,220.683 146.947,220.576L146.947,220.078C148.175,220.269 149.548,220.563 150.951,220.833L150.951,221.324ZM150.951,220.416C150.777,220.381 150.599,220.344 150.418,220.306C149.966,220.21 148.45,219.855 146.947,219.591L146.947,219.497C148.22,219.733 149.579,220.059 150.951,220.344L150.951,220.416ZM150.951,220.232C149.76,219.926 148.455,219.589 146.947,219.336L146.947,218.82C148.154,219.107 149.529,219.453 150.951,219.735L150.951,220.232ZM150.951,219.243C149.668,218.958 148.332,218.596 146.947,218.231L146.947,218.032C148.352,218.422 149.686,218.785 150.951,219.063L150.951,219.243ZM150.951,218.592C149.508,218.298 148.126,217.901 146.947,217.524L146.947,217.43C148.444,217.915 149.77,218.272 150.951,218.52L150.951,218.592ZM150.951,218.254C149.439,217.946 148.038,217.522 146.947,217.147L146.947,217.056C148.067,217.449 149.459,217.875 150.951,218.18L150.951,218.254ZM150.951,218.061C149.539,217.774 148.168,217.365 146.947,216.926L146.947,216.73C148.374,217.261 150.014,217.739 151.685,218.02L150.951,218.02L150.951,218.061ZM152.589,218.02C150.955,217.878 149.08,217.433 146.947,216.536L146.947,215.936C148.215,216.478 149.581,216.886 150.951,217.143L150.951,217.532L154.661,217.532C155.395,217.532 156.028,217.431 156.6,217.271C158.148,216.996 159.462,216.423 160.327,215.514C161.412,214.373 162.644,213.388 163.976,212.653C163.935,212.891 163.872,213.128 163.787,213.366C162.932,213.775 162.147,214.301 161.476,214.952C160.743,215.662 158.671,217.672 154.903,218.02L152.589,218.02ZM146.947,215.397L146.947,215.271C148.167,215.753 149.539,216.159 150.951,216.422L150.951,216.561C149.548,216.297 148.176,215.89 146.947,215.397ZM150.951,216.179C149.543,215.924 148.173,215.53 146.947,215.057L146.947,214.778C148.179,215.236 149.548,215.617 150.951,215.863L150.951,216.179ZM150.951,215.46C149.614,215.246 148.256,214.905 146.947,214.435L146.947,213.664C148.398,214.163 149.726,214.48 150.951,214.654L150.951,215.46ZM150.951,213.788C149.583,213.601 148.224,213.308 146.947,212.942L146.947,212.664C148.234,213.016 149.591,213.295 150.951,213.473L150.951,213.788ZM150.951,213.02C149.74,212.876 148.414,212.623 146.947,212.232L146.947,211.43C148.426,211.761 149.751,211.978 150.951,212.104L150.951,213.02ZM150.951,210.978C149.428,210.847 148.033,210.65 146.947,210.471L146.947,210.203C148.428,210.437 149.753,210.594 150.951,210.688L150.951,210.978ZM150.951,210.337C149.467,210.227 148.053,210.057 146.947,209.903L146.947,209.631C148.419,209.82 149.747,209.947 150.951,210.026L150.951,210.337ZM150.951,209.155C149.767,209.099 148.444,209.006 146.947,208.869L146.947,208.08C148.422,208.156 149.748,208.208 150.951,208.24L150.951,209.155ZM150.951,207.579C149.772,207.563 148.449,207.538 146.947,207.501L146.947,207.378C148.451,207.405 149.771,207.422 150.951,207.432L150.951,207.579ZM150.951,207.3C149.765,207.292 148.441,207.279 146.947,207.26L146.947,206.987L150.951,206.987L150.951,207.3ZM156.906,206.987L160.362,206.987C160.536,207.063 160.704,207.145 160.867,207.232C159.843,207.255 158.801,207.277 157.568,207.292C157.37,207.165 157.144,207.067 156.906,206.987ZM166.093,206.987L170.385,206.987L170.442,207.131C169.564,207.126 168.645,207.125 167.672,207.129C167.132,207.131 166.628,207.134 166.153,207.138L166.093,206.987ZM184.64,206.987L185.199,206.987L185.059,207.346C184.871,207.346 184.685,207.346 184.501,207.345L184.64,206.987ZM160.52,230.501L157.365,230.501C157.502,230.46 157.634,230.415 157.761,230.366C158.712,230.364 159.743,230.361 160.86,230.359C160.748,230.408 160.634,230.456 160.52,230.501ZM184.998,207.502L184.936,207.662C184.748,207.662 184.562,207.661 184.378,207.659L184.44,207.5C184.624,207.501 184.81,207.502 184.998,207.502ZM184.638,208.425L184.243,209.437C184.058,209.431 183.875,209.424 183.693,209.417L184.084,208.415C184.267,208.419 184.451,208.423 184.638,208.425ZM183.856,210.428L183.684,210.868C183.502,210.855 183.323,210.84 183.145,210.823L183.313,210.392C183.493,210.406 183.673,210.418 183.856,210.428ZM183.561,211.184L183.436,211.503C183.256,211.488 183.077,211.471 182.9,211.453L183.016,211.155C183.185,211.166 183.367,211.176 183.561,211.184ZM182.987,212.654L182.62,213.593C182.449,213.558 182.279,213.521 182.109,213.481L182.463,212.574C182.636,212.603 182.811,212.63 182.987,212.654ZM182.358,214.265L182.226,214.602C182.053,214.574 181.88,214.543 181.709,214.509L181.837,214.18C182.01,214.211 182.183,214.24 182.358,214.265ZM181.909,215.414L181.558,216.314C181.39,216.27 181.225,216.223 181.06,216.172L181.403,215.293C181.565,215.335 181.734,215.376 181.909,215.414ZM181.403,216.711L181.279,217.028C181.119,216.971 180.959,216.91 180.799,216.843L180.913,216.551C181.075,216.609 181.238,216.662 181.403,216.711ZM181.201,217.228L181.153,217.352C180.991,217.295 180.831,217.233 180.672,217.167L180.72,217.045C180.875,217.109 181.036,217.171 181.201,217.228ZM180.948,217.876L180.787,218.288C180.635,218.201 180.486,218.11 180.341,218.018L180.479,217.663C180.634,217.738 180.79,217.809 180.948,217.876ZM180.648,218.644L180.564,218.858C180.415,218.772 180.266,218.682 180.12,218.586L180.206,218.365C180.353,218.464 180.501,218.557 180.648,218.644ZM180.516,218.983L180.484,219.064C180.335,218.975 180.188,218.881 180.043,218.782L180.073,218.706C180.218,218.803 180.366,218.895 180.516,218.983ZM180.387,219.312L180.352,219.403C180.205,219.308 180.061,219.208 179.918,219.102L179.952,219.016C180.091,219.116 180.236,219.215 180.387,219.312ZM180.176,219.854L180.108,220.026C179.967,219.919 179.828,219.806 179.69,219.689L179.753,219.526C179.892,219.641 180.033,219.75 180.176,219.854ZM179.917,220.517L179.763,220.911C179.628,220.792 179.493,220.668 179.358,220.539L179.506,220.159C179.641,220.283 179.778,220.403 179.917,220.517ZM179.685,221.109L179.655,221.188C179.542,221.065 179.416,220.918 179.275,220.753L179.283,220.732C179.411,220.857 179.545,220.984 179.685,221.109ZM179.47,221.66L179.299,222.1C179.166,221.976 179.033,221.848 178.9,221.715L179.079,221.257C179.206,221.397 179.337,221.531 179.47,221.66ZM179.08,222.661L178.995,222.878C178.873,222.759 178.752,222.636 178.633,222.508C178.623,222.498 178.613,222.487 178.603,222.476L178.688,222.258C178.694,222.265 178.7,222.271 178.705,222.277C178.828,222.409 178.953,222.537 179.08,222.661ZM178.893,223.14L178.805,223.366C178.672,223.239 178.54,223.107 178.411,222.97L178.504,222.73C178.64,222.878 178.769,223.015 178.893,223.14ZM178.489,224.173L178.242,224.807C178.103,224.696 177.966,224.58 177.83,224.46L178.092,223.789C178.223,223.921 178.355,224.05 178.489,224.173ZM178.191,224.938L178.155,225.029C178.015,224.921 177.876,224.81 177.739,224.694L177.775,224.602C177.904,224.711 178.043,224.824 178.191,224.938ZM178.037,225.331L177.964,225.519C177.764,225.38 177.567,225.233 177.373,225.078C176.141,224.101 174.605,222.081 171.796,221.412L171.657,221.06C173.06,221.353 174.45,222.02 175.726,223.239C175.824,223.332 176.362,224.001 177.323,224.787L177.464,225.149L177.562,225.149L177.613,225.017C177.747,225.121 177.889,225.226 178.037,225.331ZM177.716,226.153L177.654,226.312C177.324,226.112 177.003,225.896 176.694,225.661C175.185,224.517 173.887,223.699 172.522,223.247L172.375,222.874C173.713,223.329 175.091,224.161 176.693,225.432C177.021,225.693 177.363,225.933 177.716,226.153ZM177.603,226.443L177.584,226.491C175.982,225.532 174.658,224.361 172.728,223.768L172.667,223.615C173.672,223.892 174.659,224.345 175.6,225.03C175.682,225.09 176.367,225.739 177.603,226.443ZM177.139,227.631L177.109,227.707C177.075,227.692 177.042,227.677 177.008,227.662C175.836,227.134 174.816,226.725 173.787,226.448L173.27,225.139C174.827,225.599 176.075,226.329 177.386,226.999L177.25,227.346C176.496,227.104 175.739,226.864 174.969,226.648C175.278,226.759 175.583,226.884 175.885,227.024C176.031,227.092 176.455,227.335 177.139,227.631ZM177.047,227.868L176.976,228.048C175.907,227.738 174.946,227.43 174.084,227.198L173.919,226.78C174.873,227.034 175.868,227.397 177.047,227.868ZM176.775,228.563L176.551,229.137C175.985,229.07 175.398,229.007 174.777,228.952L174.457,228.142C175.273,228.265 176.036,228.411 176.775,228.563ZM176.389,229.552L176.306,229.766C175.907,229.743 175.498,229.721 175.074,229.702L174.971,229.443C175.46,229.476 175.93,229.513 176.389,229.552ZM176.067,230.378L176.019,230.501L175.39,230.501L175.337,230.368C175.583,230.371 175.825,230.374 176.067,230.378ZM158.669,229.875C158.748,229.817 158.824,229.756 158.897,229.692C159.907,229.665 161.049,229.621 162.374,229.555C162.241,229.642 162.098,229.73 161.945,229.817C160.691,229.85 159.625,229.867 158.669,229.875ZM159.304,229.283C159.484,229.085 159.646,228.881 159.791,228.671C160.973,228.577 162.33,228.434 163.926,228.225C163.639,228.555 163.323,228.854 162.976,229.123C161.552,229.208 160.358,229.258 159.304,229.283ZM160.108,228.148C160.158,228.052 160.205,227.954 160.249,227.854C160.809,227.769 161.398,227.665 162.019,227.539C163.026,227.335 163.938,227.157 164.771,227.005C164.755,227.037 164.737,227.07 164.72,227.102C164.677,227.177 164.633,227.251 164.588,227.324C162.874,227.62 161.35,227.96 160.111,228.148C160.11,228.148 160.109,228.148 160.108,228.148ZM160.321,227.681C160.338,227.638 160.354,227.595 160.37,227.552C161.652,227.283 163.245,226.856 164.996,226.503C164.973,226.563 164.948,226.623 164.923,226.682C164.168,226.829 163.353,227.001 162.467,227.199C161.805,227.348 161.145,227.53 160.321,227.681ZM160.413,227.427C160.416,227.416 160.42,227.406 160.423,227.395C160.502,227.151 160.566,226.873 160.619,226.579C161.554,226.372 162.593,226.098 163.762,225.743C164.304,225.578 164.821,225.435 165.316,225.311C165.259,225.667 165.173,226.007 165.06,226.33C163.454,226.685 162.006,227.123 160.413,227.427ZM160.719,225.874C160.724,225.827 160.729,225.779 160.734,225.731C161.892,225.273 163.531,224.536 165.4,223.986C165.402,224.04 165.403,224.094 165.404,224.148C164.58,224.388 163.687,224.691 162.718,225.065C162.109,225.299 161.489,225.606 160.719,225.874ZM160.753,225.521C160.76,225.441 160.766,225.362 160.772,225.283C162.517,224.501 164.011,223.857 165.345,223.382C165.361,223.49 165.374,223.598 165.384,223.708C164.128,224.116 162.712,224.673 161.077,225.387C160.969,225.434 160.861,225.478 160.753,225.521ZM160.811,224.395C160.813,224.304 160.813,224.213 160.814,224.125C161.387,223.764 162.914,222.742 164.897,221.94C164.943,222.036 164.987,222.134 165.027,222.232C164.141,222.581 163.19,223.03 162.167,223.593C161.865,223.759 161.442,224.081 160.811,224.395ZM160.806,223.675C160.806,223.66 160.805,223.645 160.804,223.631C161.761,223.022 163.068,222.134 164.595,221.395C164.604,221.41 164.613,221.424 164.622,221.438C164.636,221.46 164.649,221.481 164.662,221.503C163.864,221.866 163.022,222.318 162.133,222.874C161.647,223.179 161.215,223.446 160.806,223.675ZM160.787,223.326C160.77,223.108 160.747,222.897 160.716,222.691C161.162,222.44 161.626,222.146 162.109,221.805C162.753,221.35 163.375,220.957 163.975,220.619C164.158,220.809 164.324,221.008 164.472,221.215C163.847,221.521 163.199,221.886 162.528,222.318C161.914,222.713 161.335,223.047 160.787,223.326ZM160.613,222.135C160.597,222.066 160.581,221.998 160.563,221.931C160.603,221.903 160.642,221.875 160.682,221.845C161.62,221.147 162.51,220.556 163.356,220.06C163.413,220.105 163.469,220.151 163.524,220.197C162.623,220.721 161.677,221.348 160.68,222.086C160.658,222.102 160.635,222.119 160.613,222.135ZM160.498,221.695C160.478,221.629 160.458,221.564 160.437,221.499C160.52,221.442 160.603,221.383 160.684,221.32C161.464,220.721 162.217,220.204 162.944,219.76C163.009,219.804 163.073,219.848 163.135,219.893C162.352,220.362 161.535,220.914 160.683,221.561C160.622,221.607 160.56,221.652 160.498,221.695ZM160.212,220.919C160.161,220.806 160.107,220.695 160.05,220.587C160.126,220.537 160.2,220.484 160.273,220.429C160.865,219.978 161.441,219.569 162.001,219.199C162.161,219.285 162.318,219.373 162.473,219.464C162.256,219.601 162.046,219.741 161.846,219.882C161.27,220.287 160.727,220.631 160.212,220.919ZM159.778,220.128C159.771,220.118 159.764,220.107 159.757,220.097C160.085,219.913 160.398,219.697 160.694,219.443C160.92,219.249 161.148,219.063 161.377,218.886C161.394,218.894 161.41,218.902 161.427,218.91C160.838,219.36 160.335,219.78 159.778,220.128ZM159.592,219.865C159.545,219.802 159.496,219.741 159.447,219.68C159.41,219.635 159.372,219.591 159.333,219.548C159.674,219.385 159.993,219.19 160.289,218.96C160.442,218.84 160.594,218.724 160.745,218.61C160.902,218.674 161.058,218.741 161.213,218.811C160.646,219.23 160.108,219.579 159.592,219.865ZM158.85,219.087C158.791,219.039 158.731,218.993 158.67,218.948C159.083,218.771 159.485,218.555 159.875,218.294C159.895,218.3 159.915,218.307 159.935,218.313C159.99,218.331 160.046,218.35 160.101,218.369C159.695,218.656 159.278,218.893 158.85,219.087ZM158.124,218.613C158.071,218.585 158.017,218.559 157.962,218.533C158.356,218.4 158.714,218.243 159.045,218.069C159.114,218.085 159.183,218.101 159.252,218.118C158.918,218.307 158.549,218.475 158.124,218.613ZM157.567,218.37C157.511,218.35 157.455,218.331 157.399,218.312C157.781,218.22 158.152,218.103 158.51,217.958C158.562,217.968 158.614,217.978 158.666,217.988C158.339,218.135 157.976,218.263 157.567,218.37ZM157.127,218.233C156.967,218.19 156.801,218.154 156.63,218.124C157.041,218.055 157.441,217.963 157.826,217.843C157.968,217.864 158.11,217.887 158.251,217.912C157.89,218.044 157.514,218.15 157.127,218.233ZM158.593,216.073C158.633,216.016 158.671,215.958 158.709,215.897C159.457,215.558 160.133,215.106 160.707,214.524C160.737,214.493 161.722,213.082 164.034,212.098C164.034,212.116 164.033,212.135 164.032,212.153C161.627,213.249 160.776,215.046 158.593,216.073ZM168.178,212.26L167.815,211.341C169.251,211.142 170.743,211.259 172.252,211.777L172.588,212.638C171.211,212.292 169.688,212.154 168.178,212.26ZM159.465,217.109C159.918,216.831 160.336,216.496 160.711,216.099C161.614,215.142 162.585,214.4 163.59,213.841C163.547,213.932 163.5,214.023 163.451,214.114C163.425,214.16 163.4,214.206 163.373,214.251C162.414,214.804 161.514,215.5 160.71,216.34C160.536,216.52 160.354,216.688 160.164,216.843C159.996,216.912 159.822,216.979 159.642,217.044C159.583,217.066 159.524,217.088 159.465,217.109ZM158.888,215.582C158.954,215.456 159.015,215.325 159.07,215.194C159.671,214.899 160.22,214.531 160.7,214.08C161.736,213.108 162.863,212.369 164.035,211.842C164.036,211.883 164.036,211.924 164.036,211.965C164.036,211.974 164.036,211.982 164.036,211.99C162.898,212.52 161.773,213.282 160.704,214.332C160.177,214.85 159.564,215.263 158.888,215.582ZM159.229,214.769C159.237,214.746 159.244,214.723 159.251,214.7C159.364,214.339 159.468,213.909 159.541,213.459C161.166,212.762 162.591,211.934 163.992,211.318C164.009,211.439 164.021,211.561 164.028,211.685C162.829,212.238 161.576,213.025 160.281,214.101C159.977,214.353 159.624,214.576 159.229,214.769ZM159.601,213.018C159.612,212.919 159.621,212.819 159.628,212.721C159.996,212.56 160.345,212.378 160.672,212.172C161.744,211.498 162.803,210.992 163.838,210.624C163.854,210.674 163.868,210.725 163.882,210.776C162.831,211.164 161.758,211.702 160.675,212.424C160.34,212.648 159.981,212.845 159.601,213.018ZM159.642,212.057C159.633,211.818 159.612,211.561 159.579,211.296C160.951,210.876 162.221,210.389 163.604,209.995C163.619,210.034 163.633,210.072 163.646,210.11C163.699,210.228 163.746,210.348 163.788,210.47C162.413,210.941 161.097,211.542 159.642,212.057ZM159.456,210.528C159.434,210.416 159.41,210.305 159.384,210.195C160.719,209.904 161.916,209.554 163.19,209.26C163.221,209.303 163.252,209.347 163.28,209.39C161.553,209.791 160.283,210.281 159.456,210.528ZM159.333,209.985C159.307,209.884 159.28,209.785 159.251,209.689C160.717,209.429 161.841,209.106 162.889,208.88C162.961,208.963 163.027,209.044 163.09,209.125C162.161,209.305 161.18,209.527 160.14,209.799C159.877,209.868 159.607,209.93 159.333,209.985ZM158.959,208.913C158.837,208.651 158.692,208.395 158.521,208.159C159.77,208.087 160.844,207.992 161.879,207.898C161.983,207.981 162.083,208.067 162.181,208.157C162.28,208.248 162.375,208.338 162.465,208.427C161.245,208.593 160.139,208.769 158.959,208.913ZM157.942,207.55C157.87,207.493 157.794,207.44 157.715,207.391C158.834,207.367 159.883,207.337 161.005,207.307C161.076,207.347 161.146,207.389 161.215,207.431C160.137,207.475 159.109,207.518 157.942,207.55ZM166.18,207.207C167.121,207.197 168.156,207.19 169.317,207.188C169.705,207.187 170.087,207.188 170.465,207.191L170.49,207.256C169.422,207.243 168.305,207.243 167.117,207.259C166.802,207.264 166.499,207.268 166.207,207.274L166.18,207.207ZM170.613,207.571L170.774,207.984C169.588,207.919 168.356,207.908 167.049,207.981C166.862,207.992 166.679,208.003 166.5,208.015L166.326,207.575C167.364,207.535 168.516,207.522 169.871,207.552C170.122,207.557 170.369,207.564 170.613,207.571ZM170.944,208.421L170.996,208.554C169.709,208.467 168.305,208.468 166.733,208.606L166.648,208.389C168.193,208.286 169.61,208.313 170.944,208.421ZM171.058,208.713L171.116,208.861C169.536,208.723 168.107,208.735 166.825,208.838L166.767,208.691C167.363,208.645 167.997,208.621 168.681,208.624C169.554,208.629 170.341,208.661 171.058,208.713ZM171.335,209.422L171.545,209.962C170.441,209.748 169.278,209.629 168.027,209.656C167.733,209.662 167.447,209.679 167.168,209.705L167.02,209.33C167.867,209.247 168.784,209.219 169.8,209.266C170.32,209.29 170.831,209.344 171.335,209.422ZM171.598,210.098L171.663,210.265C170.328,209.977 168.851,209.842 167.282,209.994L167.231,209.863C168.797,209.71 170.268,209.83 171.598,210.098ZM171.813,210.649L171.956,211.016C170.65,210.632 169.168,210.445 167.542,210.652L167.444,210.403C169.108,210.258 170.555,210.376 171.813,210.649ZM172.044,211.243L172.122,211.443C170.778,211.069 169.261,210.874 167.686,211.015L167.631,210.876C169.134,210.721 170.634,210.857 172.044,211.243ZM172.157,211.532L172.186,211.608C171.045,211.317 169.705,211.162 168.149,211.249C168.026,211.256 167.906,211.264 167.788,211.273L167.764,211.212C167.886,211.203 168.009,211.194 168.135,211.187C169.701,211.101 171.037,211.255 172.157,211.532ZM172.703,212.934L172.78,213.132C171.363,212.702 169.851,212.552 168.346,212.685L168.255,212.455C169.815,212.338 171.337,212.534 172.703,212.934ZM172.854,213.322L172.898,213.434C171.653,213.065 170.193,212.884 168.483,213.031L168.441,212.924C170.15,212.776 171.609,212.955 172.854,213.322ZM168.627,213.396C170.113,213.289 171.629,213.413 173.043,213.805L173.085,213.915C171.84,213.533 170.378,213.343 168.662,213.485L168.627,213.396ZM173.331,214.544L173.43,214.799C171.962,214.318 170.447,214.197 168.991,214.315L168.899,214.083C170.353,213.961 171.866,214.077 173.331,214.544ZM173.712,215.522L174.023,216.319C172.605,215.8 171.071,215.6 169.527,215.672L169.173,214.778C170.788,214.631 172.287,214.898 173.712,215.522ZM169.571,215.784C171.194,215.729 172.733,215.993 174.097,216.51L174.139,216.618C172.872,216.088 171.371,215.767 169.6,215.857L169.571,215.784ZM174.382,217.242L174.696,218.047C173.211,217.302 171.631,217.013 170.069,217.043L169.755,216.249C171.528,216.162 173.054,216.565 174.382,217.242ZM174.982,218.782L175.111,219.111C173.858,218.296 172.27,217.659 170.303,217.636L170.225,217.437C172.141,217.453 173.723,218.03 174.982,218.782ZM175.288,219.567L175.451,219.984C173.957,218.824 172.334,218.131 170.472,218.063L170.391,217.858C172.414,217.894 174.007,218.627 175.288,219.567ZM176.015,221.433L176.704,223.2C175.68,222.094 173.876,220.515 171.253,220.036L170.806,218.907C173.102,219.155 174.817,220.306 176.015,221.433ZM176.951,223.832L177.036,224.05C177.015,224.03 176.994,224.009 176.974,223.988C176.37,223.38 174.662,221.017 171.398,220.405L171.323,220.214C173.024,220.547 174.768,221.46 176.456,223.275C176.469,223.29 176.635,223.506 176.951,223.832ZM160.684,216.609C160.63,216.635 160.574,216.662 160.518,216.688C160.582,216.627 160.646,216.564 160.709,216.499C160.737,216.469 161.513,215.385 163.276,214.411C163.238,214.472 163.199,214.531 163.159,214.59C162.109,215.224 161.418,215.947 160.684,216.609Z"/>
            </g>
        </g>
    </g>
</svg>
