<?xml version="1.0" encoding="UTF-8" standalone="no"?>
<!DOCTYPE svg PUBLIC "-//W3C//DTD SVG 1.1//EN" "http://www.w3.org/Graphics/SVG/1.1/DTD/svg11.dtd">
<svg width="100%" height="100%" viewBox="0 0 427 273" version="1.1" xmlns="http://www.w3.org/2000/svg" xmlns:xlink="http://www.w3.org/1999/xlink" xml:space="preserve" xmlns:serif="http://www.serif.com/" style="fill-rule:evenodd;clip-rule:evenodd;stroke-linejoin:round;stroke-miterlimit:2;">
    <g transform="matrix(1,0,0,1,-908.708,-611.604)">
        <g id="Artboard1" transform="matrix(0.973514,0,0,0.769976,345.318,604.406)">
            <rect x="578.718" y="9.348" width="437.949" height="353.89" style="fill:none;"/>
            <g transform="matrix(7.49387,0,0,9.47482,-462.495,-1885.94)">
                <path d="M151.748,218.792L156.748,220.965L158.949,221.755C158.993,221.766 159.803,221.975 159.519,221.746L157.827,220.917C156.293,220.278 156.482,217.839 156.505,217.551L157.732,211.392C157.779,211.121 158.174,208.88 157.505,207.952C157.168,207.328 155.901,206.906 155.744,206.853L153.707,206.556L152.241,206.527L150.969,206.518C151.033,210.907 149.213,210.873 151.748,218.792ZM150.956,230.92L152.056,230.935L153.765,230.952L157.255,230.719L160.737,229.752L166.35,227.733C166.782,227.574 171.335,225.891 171.502,225.177C171.643,224.525 165.549,223.497 165.019,223.408C164.455,223.313 161.141,222.752 158.087,221.655L151.888,219.231C154.655,227.876 151.219,227.654 150.956,230.92ZM146.947,231.301L146.947,206.106L150.755,206.106L152.025,206.112L153.295,206.112L154.369,206.112C154.761,206.113 157.866,206.113 159.225,206.727C161.021,207.431 161.139,208.898 161.159,209.145C161.183,209.437 161.284,210.712 160.38,212.732L159.044,215.983C158.973,216.205 158.418,217.949 159.191,218.9L160.954,220.608C161.027,220.706 161.707,221.622 161.419,222.062C161.202,222.48 159.86,222.124 159.729,222.089L159.844,222.146C161.796,222.736 163.171,222.651 163.462,222.633L166.804,221.989C167.095,221.943 168.568,221.705 170.482,221.867C170.77,221.893 173.912,222.179 173.91,223.004C173.894,224.151 170.614,226.157 170.276,226.363C167.55,228.021 164.924,229.067 164.44,229.26L159.406,230.952C159.015,231.032 157.638,231.312 154.433,231.312L152.187,231.312L150.852,231.302L149.485,231.301L146.947,231.301ZM165.745,206.106L170.042,206.106C170.572,207.482 168.684,208.768 167.676,209.844C166.504,211.096 164.103,211.346 163.602,212.986C163.495,213.335 179.993,216.618 180.288,219.558L180.345,219.574C180.61,217.88 175.131,213.984 175.246,213.326C175.444,212.196 184.366,207.771 184.983,206.106L189.378,206.106L189.378,231.301L185.373,231.301L185.355,230.798C185.352,229.368 185.725,227.959 185.805,226.532C185.884,225.131 186.138,223.693 185.83,222.325C185.117,219.159 183.302,216.283 182.777,213.08C182.688,212.542 184.271,213.312 185.337,206.765L185.235,206.764C184.495,207.994 175.336,212.581 176.579,214.43C177.649,216.02 179.663,216.817 180.732,218.408L175.706,231.301C174.253,227.506 178.687,223.222 177.712,219.278C177.712,219.278 162.545,215.901 161.226,215.608L165.745,206.106Z"/>
            </g>
        </g>
    </g>
</svg>
