<?xml version="1.0" encoding="UTF-8" standalone="no"?>
<!DOCTYPE svg PUBLIC "-//W3C//DTD SVG 1.1//EN" "http://www.w3.org/Graphics/SVG/1.1/DTD/svg11.dtd">
<svg width="100%" height="100%" viewBox="0 0 427 273" version="1.1" xmlns="http://www.w3.org/2000/svg" xmlns:xlink="http://www.w3.org/1999/xlink" xml:space="preserve" xmlns:serif="http://www.serif.com/" style="fill-rule:evenodd;clip-rule:evenodd;stroke-linejoin:round;stroke-miterlimit:2;">
    <g transform="matrix(1,0,0,1,-908.978,0)">
        <g id="Artboard1" transform="matrix(0.973514,0,0,0.769976,345.588,-7.19782)">
            <rect x="578.718" y="9.348" width="437.949" height="353.89" style="fill:none;"/>
            <g transform="matrix(1.02721,0,0,1.29874,-363.364,6.94541)">
                <path d="M968.366,101.128C966.781,100.285 965.242,99.459 963.764,98.657C955.148,93.979 948.553,89.919 946.726,88.107C944.277,85.678 944.26,81.718 946.689,79.269C949.118,76.819 953.079,76.803 955.528,79.232C956.917,80.61 961.785,83.347 968.107,86.79C968.229,91.93 968.313,96.677 968.366,101.128ZM968.107,86.79C967.848,75.891 967.419,63.22 966.758,47.833L966.682,44.299L994.468,44.299L1003.73,44.34L1012.99,44.34L1020.83,44.34C1023.72,44.34 1044.97,44.34 1056.79,47.81C1058.92,48.363 1069.53,51.118 1082,58.788L1100.15,72.094L1110.11,84.086C1111.45,86.498 1112.17,88.747 1112.52,90.722C1106.12,100.385 1100.79,107.743 1093.24,115.559C1090.01,117.074 1085.7,118.821 1080.13,120.55C1077.7,121.353 1075.35,122.026 1073.13,122.589C1086.83,100.077 1090.78,87.658 1092.96,83.133C1094.25,80.437 1093.45,77.201 1091.05,75.415C1088.65,73.629 1085.33,73.793 1083.11,75.807C1081.36,77.405 1079.63,78.985 1077.93,80.542C1072.39,73.426 1064.24,66.219 1062.91,65.043L1046.73,53.278L1031.16,48.512L1015.94,47.126L1005.2,47.131L995.899,47.222C996.462,64.48 1005.61,80.554 1007.43,97.724C1007.76,100.844 1007.76,103.986 1007.53,107.127C996.837,101.801 981.345,93.978 969.728,87.671C969.178,87.373 968.638,87.079 968.107,86.79ZM1112.52,90.722C1114.56,87.629 1116.72,84.299 1119.1,80.643C1120.38,78.666 1122.6,77.646 1124.82,77.815C1126.78,80.263 1128.68,82.741 1130.46,85.29C1130.36,85.818 1130.18,86.34 1129.93,86.844C1125.86,94.967 1122.71,103.526 1118.65,111.649C1114.93,119.078 1111.81,125.159 1109.05,130.352C1121.84,116.749 1129.12,109.016 1138.06,99.636C1139.57,104.769 1139.84,110.313 1139.93,115.81C1130.98,125.255 1121.69,135.168 1103.84,154.136C1101,157.151 1098.63,159.692 1096.58,161.912L1095.76,156.345C1094.14,146.403 1091.06,142.198 1090.3,141.156C1090.13,140.924 1089.81,140.487 1089.33,139.909C1090.68,137.656 1092.07,135.278 1093.54,132.669C1091.66,134.352 1089.65,136.089 1087.49,137.9C1085.29,135.705 1081.8,132.883 1076.82,130.753L1076.55,130.696C1083.39,125.09 1088.71,120.242 1093.24,115.559C1097.59,113.519 1099.97,111.9 1100.83,111.315C1110.08,105.528 1111.78,99.784 1112.17,98.47C1112.39,97.718 1113.24,94.806 1112.52,90.722ZM1124.82,77.815C1116.98,68.028 1108.33,58.72 1103.72,47.215L1134.89,52.286C1139.68,66.272 1143.87,78.69 1147.54,89.727C1144.04,93.375 1140.96,96.592 1138.06,99.636C1137.61,98.118 1137.06,96.635 1136.36,95.201C1134.69,91.733 1132.67,88.456 1130.46,85.29C1130.99,82.71 1129.83,79.991 1127.44,78.623C1126.61,78.148 1125.71,77.883 1124.82,77.815ZM1147.54,89.727C1153.45,83.573 1160.56,76.195 1170.05,66.359C1172.23,64.096 1175.75,63.807 1178.27,65.683C1180.8,67.56 1181.53,71.018 1179.99,73.759L1159.26,110.669C1159.2,110.779 1159.14,110.887 1159.07,110.993C1158.05,112.573 1157.04,114.128 1156.04,115.657C1153.57,107.986 1150.75,99.385 1147.54,89.727ZM1156.04,115.657C1156.5,117.102 1156.96,118.515 1157.4,119.894C1153.46,123.453 1149.87,126.697 1146.56,129.683C1149.64,125.259 1152.8,120.588 1156.04,115.657ZM1157.4,119.894C1158,119.349 1158.61,118.796 1159.23,118.236C1161.44,116.235 1164.76,116.077 1167.16,117.857C1169.55,119.638 1170.35,122.861 1169.07,125.555C1166.85,130.234 1164.86,134.345 1163.09,137.963C1161.45,132.645 1159.56,126.655 1157.4,119.894ZM1163.09,137.963C1163.88,140.508 1164.61,142.9 1165.3,145.148C1163.73,146.123 1160.5,148.101 1156.98,150.258C1158.65,146.957 1160.67,142.923 1163.09,137.963ZM1165.3,145.148C1165.73,144.877 1166.04,144.684 1166.19,144.586C1168.55,143.037 1171.65,143.262 1173.76,145.134C1175.88,147.007 1176.47,150.063 1175.21,152.591C1173.69,155.664 1172.37,158.835 1170.84,161.908C1170.72,162.151 1170.6,162.39 1170.48,162.625C1169.15,158.011 1167.47,152.303 1165.3,145.148ZM1170.48,162.625C1171.06,164.604 1171.57,166.382 1172.02,167.985C1169.83,169.632 1167.78,171.113 1165.89,172.445C1166.98,169.919 1168.35,166.94 1170.48,162.625ZM1172.02,167.985C1175.39,165.463 1179.11,162.551 1183.17,159.192C1190.38,153.238 1194.16,149.914 1197.6,146.764C1191.34,158.245 1186.24,167.613 1183.01,175.325C1180.46,177.3 1178.08,179.073 1175.88,180.664C1174.88,178.027 1173.85,174.391 1172.02,167.985ZM1197.6,146.764C1210.3,123.466 1227.77,91.465 1244.08,46.939L1276.24,44.299C1276.24,119.041 1276.15,132.457 1276.19,184.373C1275.66,183.644 1274.97,183.029 1274.16,182.58C1272.42,181.619 1270.33,181.539 1268.53,182.365C1268.11,182.559 1257.57,188.113 1248.96,191.268C1253.23,183.98 1259.86,175.402 1261.11,173.608C1262.79,171.185 1262.55,167.912 1260.53,165.76C1258.51,163.608 1255.26,163.165 1252.73,164.696C1250.02,166.342 1247.56,167.835 1245.31,169.197C1244.96,131.685 1246.96,114.794 1246.95,51.55L1246.23,51.644C1228.89,97.82 1215.03,123.958 1206.25,138.76C1202.65,142.056 1200.23,144.359 1197.6,146.764ZM1276.19,184.373C1276.79,185.206 1277.19,186.188 1277.33,187.238C1277.5,188.581 1277.39,191.013 1277.55,193.913C1277.8,198.278 1278.92,204.424 1286.49,206.946C1288.9,207.751 1294.92,208.866 1296.35,209.635L1298.28,211.154L1299.44,213.027C1300.73,216.227 1299.17,219.871 1295.97,221.157C1294.11,221.908 1292.09,221.692 1290.48,220.745C1289.17,220.46 1284.19,219.356 1282.54,218.804C1280.11,217.996 1278.02,217.002 1276.22,215.868C1276.2,203.818 1276.19,193.5 1276.19,184.373ZM1276.22,215.868C1276.22,219.761 1276.23,223.835 1276.24,228.108L1247.03,228.108L1246.96,224.584C1246.65,217.524 1246.39,211.045 1246.17,205.053C1247.99,204.701 1250,204.158 1252.11,203.421C1256.42,201.911 1261.33,199.739 1265.38,197.834C1265.38,197.875 1265.39,197.916 1265.39,197.957C1266.27,204.182 1268.81,211.208 1276.22,215.868ZM1246.17,205.053C1243.38,205.593 1241.04,205.679 1239.54,205.31L1238.06,204.796L1236.6,203.916L1235.33,202.697L1234.41,201.288L1233.78,199.602L1233.54,198.08L1233.88,194.46C1234.21,193.081 1234.91,191.385 1235.84,189.514C1227.7,194.43 1224.42,196.461 1215.89,202.023C1213.02,203.892 1209.18,203.106 1207.28,200.261C1206.09,198.48 1205.93,196.307 1206.67,194.455C1205.17,194.956 1203.95,195.347 1202.95,195.648C1197.88,197.172 1196.46,196.946 1194.08,196.498L1191.97,195.886L1190.57,195.111L1189.45,194.134L1188.46,192.772L1187.84,191.228L1187.6,189.788L1187.74,187.749L1188.35,185.74C1189.46,182.95 1193.38,176.522 1200.53,160.904C1198.1,163.017 1195.14,165.522 1191.13,168.831C1190.54,169.316 1189.96,169.792 1189.39,170.26C1191.31,165.189 1193.65,159.935 1196.53,154.538C1197.97,151.838 1201.3,147.096 1206.25,138.76C1208.23,136.949 1210.56,134.837 1213.48,132.244C1215.65,130.314 1218.86,130.134 1221.24,131.81C1223.61,133.486 1224.51,136.576 1223.42,139.267C1214.95,160.117 1208.35,174.08 1204.34,182.062C1210.7,179.92 1221.67,176.093 1241.68,169.483C1242.81,169.109 1243.99,169.076 1245.08,169.335C1245.15,169.289 1245.23,169.243 1245.31,169.197C1245.4,179.242 1245.66,190.765 1246.17,205.053ZM1189.39,170.26C1179.62,196.084 1180.72,217.154 1176.49,228.108C1169.81,211.411 1163.62,201.022 1158.3,192.175C1161.41,190.315 1167.3,186.875 1175.88,180.664C1176.72,182.866 1177.55,184.372 1178.83,186.212L1179.57,186.212C1180.13,182.999 1181.31,179.392 1183.01,175.325C1185.03,173.766 1187.15,172.08 1189.39,170.26ZM1158.3,192.175C1157.39,192.72 1156.72,193.13 1156.29,193.434C1154.01,195.047 1150.92,194.944 1148.75,193.182C1146.58,191.42 1145.84,188.429 1146.95,185.858C1148.34,182.606 1149.39,180.057 1150.26,177.906C1152.62,182.738 1155.32,187.214 1158.3,192.175ZM1150.26,177.906C1149.12,175.587 1148.07,173.186 1147.1,170.61C1148.48,170.122 1151.43,168.481 1154.88,166.434C1153.12,170.459 1152.13,173.25 1150.26,177.906ZM1147.1,170.61C1147.1,170.612 1147.09,170.614 1147.09,170.616L1144.4,171.104L1142.78,170.894L1141.23,170.272L1139.48,168.821L1138.31,166.706L1137.84,164.802L1137.74,163.126L1137.93,161.447C1138.05,160.817 1138.25,160.104 1138.57,159.261C1139.12,157.79 1140.25,155.575 1142.27,151.625C1143.47,159.241 1145.1,165.297 1147.1,170.61ZM1142.27,151.625C1142.21,151.254 1142.16,150.88 1142.1,150.503C1142.56,150.097 1143.01,149.686 1143.48,149.27C1143.05,150.117 1142.64,150.9 1142.27,151.625ZM1142.1,150.503C1125.27,165.571 1116.19,173.331 1098.51,188.12C1099.22,182.848 1098.79,177.446 1098.71,176.434L1097.84,170.484C1109.41,158.291 1123.63,141.232 1139.95,117.239C1139.97,118.982 1139.98,120.716 1140.02,122.426C1140.26,133.814 1140.97,142.92 1142.1,150.503ZM1098.51,188.12C1098.21,190.339 1097.71,192.535 1096.9,194.372C1096.29,195.647 1093.23,202.003 1084.65,207.127C1074.97,213.462 1062.2,216.994 1060.15,217.562L1023.43,223.753L1015.15,224.68L1006.13,225.66L995.912,226.585L985.54,227.413L966.682,228.108L966.682,224.546C966.682,157.8 968.844,141.762 968.366,101.128C980.823,107.754 996.037,115.383 1005.48,120.071C1005.08,121.864 1004.65,123.646 1004.2,125.411L1016.17,125.242C1024,128.38 1032.13,127.842 1040.73,124.345L1055.03,122.376C1055.53,122.248 1057.16,121.83 1059.27,121.169C1058.4,122.552 1057.49,123.969 1056.54,125.422C1056.36,125.436 1056.21,125.448 1056.09,125.458L1055.71,126.239L1055.97,126.294C1055.13,127.586 1054.25,128.905 1053.35,130.252C1047.49,128.669 1041.72,128.744 1040.55,128.759L1003.19,129.239C990.732,175.51 996.693,175.27 996.666,223.61L1004.88,222.854L1017.65,221.491L1042.36,216.853C1052.7,213.89 1057.23,209.531 1058.27,208.536C1060.42,206.469 1062.05,204.523 1063.3,202.783C1062.8,204.764 1063.28,206.946 1064.76,208.552C1067.02,211.002 1070.8,211.249 1073.36,209.113C1083.64,200.533 1091.71,193.807 1098.51,188.12ZM1007.53,107.127C1013.63,110.17 1018.17,112.397 1019.52,113.062C1027.55,116.998 1035.85,113.894 1045.21,107.828C1055.12,101.406 1065.87,91.566 1077.93,80.542C1078.87,81.759 1079.75,82.973 1080.49,84.154C1086.55,93.757 1083.42,101.127 1082.85,102.489C1079.55,110.214 1072.23,115.212 1071.04,116.022C1067.75,118.27 1062.82,120.061 1059.27,121.169C1062.9,115.424 1065.93,110.282 1068.46,105.711C1059.94,112.951 1052.04,118.878 1044.6,122.587C1043.3,123.237 1042.01,123.824 1040.73,124.345L1036.27,124.957L1016.17,125.242C1015.45,124.953 1014.73,124.634 1014.02,124.283C1012.93,123.75 1009.81,122.219 1005.48,120.071C1006.44,115.802 1007.21,111.466 1007.53,107.127ZM1073.13,122.589C1071.86,124.671 1070.51,126.84 1069.07,129.096L1055.97,126.294C1056.17,126.002 1056.36,125.711 1056.54,125.422C1058.7,125.246 1065.03,124.645 1073.13,122.589ZM1069.07,129.096L1076.55,130.696C1073.34,133.33 1069.8,136.131 1065.85,139.161C1065.4,138.201 1064.84,137.329 1064.2,136.538C1065.93,133.958 1067.55,131.478 1069.07,129.096ZM1139.95,117.239C1139.94,116.764 1139.94,116.287 1139.93,115.81C1141.05,114.625 1142.17,113.446 1143.3,112.258C1142.17,113.951 1141.06,115.611 1139.95,117.239ZM1096.58,161.912L1097.84,170.484C1080.47,188.773 1069.04,196.117 1065.35,199.499C1066.53,197.302 1066.97,195.747 1067.14,195.156C1067.25,194.764 1067.35,194.342 1067.44,193.893C1068.07,193.561 1068.64,193.118 1069.14,192.566C1083.74,176.393 1085.72,173.64 1096.58,161.912ZM1067.44,193.893C1065.33,195.021 1062.67,194.865 1060.67,193.318C1058.09,191.316 1057.49,187.66 1059.29,184.932C1062.52,180.034 1065.38,175.777 1067.94,171.993L1068.06,174.949C1068.14,176.456 1068.71,187.663 1067.44,193.893ZM1067.94,171.993L1067.22,153.801C1075.27,147.778 1081.89,142.592 1087.49,137.9C1088.25,138.664 1088.86,139.352 1089.33,139.909C1083.25,149.974 1077.74,157.526 1067.94,171.993ZM1067.22,153.801C1060.57,158.777 1052.94,164.325 1044.1,170.639C1036.97,175.733 1032.56,179.004 1031.6,179.378L1029.01,179.838L1027.49,179.607L1026.21,179.094L1025.04,178.279L1024.03,177.163L1023.01,174.768L1022.9,173.11L1023.34,171.163L1025.04,168.468C1036.8,153.813 1046.05,141.127 1053.35,130.252C1057.43,131.353 1061.55,133.255 1064.2,136.538C1062.48,139.109 1060.66,141.779 1058.71,144.551C1061.23,142.673 1063.6,140.88 1065.85,139.161C1066.23,139.983 1066.53,140.87 1066.75,141.826L1067.22,153.801ZM1063.3,202.783C1063.56,201.74 1064.09,200.753 1064.9,199.934C1065.03,199.797 1065.18,199.652 1065.35,199.499C1064.82,200.476 1064.15,201.58 1063.3,202.783Z"/>
            </g>
            <g transform="matrix(1.02721,0,0,1.29874,-354.278,9.34811)">
                <g transform="matrix(1,0,0,1,-8.84515,0.0633345)">
                    <g transform="matrix(7.29539,0,0,7.29539,-105.351,-1459.33)">
                        <path d="M151.478,217.142C153.254,217.054 153.233,217.045 154.988,216.96C155.155,216.951 156.004,216.91 157.044,216.536C157.195,216.482 158.205,216.119 158.819,215.608C159.382,215.14 160.148,214.12 160.373,213.745C161.078,212.563 160.774,211.51 160.719,211.322C160.571,210.807 160.026,209.644 159.433,208.854C159.324,208.709 158.601,207.745 157.763,207.316C157.242,206.987 155.917,206.713 155.752,206.679C154.843,206.491 153.857,206.493 153.692,206.493L152.227,206.494L150.958,206.508C151.055,209.261 152.01,209.989 151.478,217.142ZM151.057,230.685L152.183,230.581C152.264,230.573 153.782,230.411 153.933,230.394C155.947,230.173 157.056,229.838 157.32,229.759C157.51,229.704 158.737,229.352 159.501,228.619C159.627,228.497 160.457,227.699 160.717,226.784C160.943,225.986 160.854,224.236 160.843,224.015C160.823,223.634 160.811,222.316 160.353,220.807C160.315,220.684 160.101,219.98 159.699,219.344C158.452,217.376 156,217.476 155.644,217.49C154.669,217.529 152.212,217.646 151.435,217.679C151.018,222.585 150.94,222.561 150.922,223.482C150.888,225.271 151.058,227.561 151.057,230.685ZM146.947,230.813C146.947,222.469 146.853,222.472 147.617,217.645C148.574,211.591 147.116,210.268 146.957,206.591L146.947,206.106L150.755,206.106L152.025,206.112L153.294,206.112L154.368,206.112C154.762,206.112 157.686,206.112 159.263,206.583C160.999,207.04 162.153,207.879 162.375,208.041C162.545,208.165 163.775,209.06 164.336,209.794C164.437,209.908 165.062,210.619 165.363,211.392C165.659,212.155 165.527,212.846 165.287,213.315C164.821,214.229 163.515,214.924 163.331,215.021C162.22,215.671 160.581,216.187 160.333,216.265C160.099,216.344 158.658,216.831 157.328,216.977L157.323,217.091C157.573,217.121 159.317,217.332 160.4,217.734C160.625,217.818 161.899,218.291 162.978,219.259C163.933,220.117 164.366,221.242 164.441,221.438C164.929,222.761 165.026,223.991 165.044,224.218C165.059,224.415 165.171,225.828 164.796,226.677C164.293,227.723 163.283,228.326 163.117,228.425C162.465,228.852 160.619,229.618 159.758,229.856C158.024,230.336 155.131,230.659 154.725,230.704L153.59,230.831L152.354,230.966L150.953,231.093L149.531,231.206C148.124,231.301 147.154,231.301 146.947,231.301L146.947,230.813ZM165.71,206.503C166.105,206.562 169.905,207.186 169.979,207.198C170.787,209.978 173.359,212.797 173.789,216.151C174.248,219.738 173.707,222.088 176.002,225.573L176.099,225.576C176.532,222.843 178.013,220.798 179.874,217.919C183.484,212.334 183.342,211.225 184.978,206.464C185.327,206.415 187.512,206.106 189.378,206.106C189.378,208.836 190.637,212.142 190.275,214.347C189.98,216.139 188.177,219.157 187.256,220.998C184.006,227.497 189.365,227.293 189.378,231.301C188.043,231.301 186.709,231.301 185.374,231.302L185.338,230.835C184.87,227.407 181.068,226.525 183.475,220.887C184.259,219.053 186.057,215.672 186.127,213.914C186.213,211.765 185.547,209.406 185.399,207.08L185.302,207.093C184.7,208.932 183.798,212.493 181.942,215.585C180.418,218.123 178.386,220.774 177.504,222.707C176.02,225.962 176.797,228.521 175.706,231.301C174.76,228.878 171.62,225.963 170.716,223.175C169.883,220.61 170.354,215.819 169.962,214.333C169.19,211.396 166.741,209.689 165.71,206.503Z" style="fill:none;fill-rule:nonzero;stroke:black;stroke-width:0.14px;"/>
                    </g>
                </g>
            </g>
        </g>
    </g>
</svg>
