<?xml version="1.0" encoding="UTF-8" standalone="no"?>
<!DOCTYPE svg PUBLIC "-//W3C//DTD SVG 1.1//EN" "http://www.w3.org/Graphics/SVG/1.1/DTD/svg11.dtd">
<svg width="100%" height="100%" viewBox="0 0 427 273" version="1.1" xmlns="http://www.w3.org/2000/svg" xmlns:xlink="http://www.w3.org/1999/xlink" xml:space="preserve" xmlns:serif="http://www.serif.com/" style="fill-rule:evenodd;clip-rule:evenodd;stroke-linejoin:round;stroke-miterlimit:2;">
    <g transform="matrix(1,0,0,1,-1367.14,-1223.21)">
        <g id="Artboard1" transform="matrix(0.973514,0,0,0.769976,803.75,1216.01)">
            <rect x="578.718" y="9.348" width="437.949" height="353.89" style="fill:none;"/>
            <g id="qr-bm.svg" transform="matrix(1.13297,0.118597,-0.0938012,1.43247,797.693,189.271)">
                <g transform="matrix(1,0,0,1,-116,-116)">
                    <g>
                        <g id="p" transform="matrix(1,0,0,1,32,32)">
                            <rect x="0" y="0" width="8" height="8"/>
                        </g>
                        <g id="p1" serif:id="p" transform="matrix(1,0,0,1,32,40)">
                            <rect x="0" y="0" width="8" height="8"/>
                        </g>
                        <g id="p2" serif:id="p" transform="matrix(1,0,0,1,32,48)">
                            <rect x="0" y="0" width="8" height="8"/>
                        </g>
                        <g id="p3" serif:id="p" transform="matrix(1,0,0,1,32,56)">
                            <rect x="0" y="0" width="8" height="8"/>
                        </g>
                        <g id="p4" serif:id="p" transform="matrix(1,0,0,1,32,64)">
                            <rect x="0" y="0" width="8" height="8"/>
                        </g>
                        <g id="p5" serif:id="p" transform="matrix(1,0,0,1,32,72)">
                            <rect x="0" y="0" width="8" height="8"/>
                        </g>
                        <g id="p6" serif:id="p" transform="matrix(1,0,0,1,32,80)">
                            <rect x="0" y="0" width="8" height="8"/>
                        </g>
                        <g id="p7" serif:id="p" transform="matrix(1,0,0,1,32,112)">
                            <rect x="0" y="0" width="8" height="8"/>
                        </g>
                        <g id="p8" serif:id="p" transform="matrix(1,0,0,1,32,128)">
                            <rect x="0" y="0" width="8" height="8"/>
                        </g>
                        <g id="p9" serif:id="p" transform="matrix(1,0,0,1,32,144)">
                            <rect x="0" y="0" width="8" height="8"/>
                        </g>
                        <g id="p10" serif:id="p" transform="matrix(1,0,0,1,32,152)">
                            <rect x="0" y="0" width="8" height="8"/>
                        </g>
                        <g id="p11" serif:id="p" transform="matrix(1,0,0,1,32,160)">
                            <rect x="0" y="0" width="8" height="8"/>
                        </g>
                        <g id="p12" serif:id="p" transform="matrix(1,0,0,1,32,168)">
                            <rect x="0" y="0" width="8" height="8"/>
                        </g>
                        <g id="p13" serif:id="p" transform="matrix(1,0,0,1,32,176)">
                            <rect x="0" y="0" width="8" height="8"/>
                        </g>
                        <g id="p14" serif:id="p" transform="matrix(1,0,0,1,32,184)">
                            <rect x="0" y="0" width="8" height="8"/>
                        </g>
                        <g id="p15" serif:id="p" transform="matrix(1,0,0,1,32,192)">
                            <rect x="0" y="0" width="8" height="8"/>
                        </g>
                        <g id="p16" serif:id="p" transform="matrix(1,0,0,1,40,32)">
                            <rect x="0" y="0" width="8" height="8"/>
                        </g>
                        <g id="p17" serif:id="p" transform="matrix(1,0,0,1,40,80)">
                            <rect x="0" y="0" width="8" height="8"/>
                        </g>
                        <g id="p18" serif:id="p" transform="matrix(1,0,0,1,40,104)">
                            <rect x="0" y="0" width="8" height="8"/>
                        </g>
                        <g id="p19" serif:id="p" transform="matrix(1,0,0,1,40,128)">
                            <rect x="0" y="0" width="8" height="8"/>
                        </g>
                        <g id="p20" serif:id="p" transform="matrix(1,0,0,1,40,144)">
                            <rect x="0" y="0" width="8" height="8"/>
                        </g>
                        <g id="p21" serif:id="p" transform="matrix(1,0,0,1,40,192)">
                            <rect x="0" y="0" width="8" height="8"/>
                        </g>
                        <g id="p22" serif:id="p" transform="matrix(1,0,0,1,48,32)">
                            <rect x="0" y="0" width="8" height="8"/>
                        </g>
                        <g id="p23" serif:id="p" transform="matrix(1,0,0,1,48,48)">
                            <rect x="0" y="0" width="8" height="8"/>
                        </g>
                        <g id="p24" serif:id="p" transform="matrix(1,0,0,1,48,56)">
                            <rect x="0" y="0" width="8" height="8"/>
                        </g>
                        <g id="p25" serif:id="p" transform="matrix(1,0,0,1,48,64)">
                            <rect x="0" y="0" width="8" height="8"/>
                        </g>
                        <g id="p26" serif:id="p" transform="matrix(1,0,0,1,48,80)">
                            <rect x="0" y="0" width="8" height="8"/>
                        </g>
                        <g id="p27" serif:id="p" transform="matrix(1,0,0,1,48,112)">
                            <rect x="0" y="0" width="8" height="8"/>
                        </g>
                        <g id="p28" serif:id="p" transform="matrix(1,0,0,1,48,128)">
                            <rect x="0" y="0" width="8" height="8"/>
                        </g>
                        <g id="p29" serif:id="p" transform="matrix(1,0,0,1,48,144)">
                            <rect x="0" y="0" width="8" height="8"/>
                        </g>
                        <g id="p30" serif:id="p" transform="matrix(1,0,0,1,48,160)">
                            <rect x="0" y="0" width="8" height="8"/>
                        </g>
                        <g id="p31" serif:id="p" transform="matrix(1,0,0,1,48,168)">
                            <rect x="0" y="0" width="8" height="8"/>
                        </g>
                        <g id="p32" serif:id="p" transform="matrix(1,0,0,1,48,176)">
                            <rect x="0" y="0" width="8" height="8"/>
                        </g>
                        <g id="p33" serif:id="p" transform="matrix(1,0,0,1,48,192)">
                            <rect x="0" y="0" width="8" height="8"/>
                        </g>
                        <g id="p34" serif:id="p" transform="matrix(1,0,0,1,56,32)">
                            <rect x="0" y="0" width="8" height="8"/>
                        </g>
                        <g id="p35" serif:id="p" transform="matrix(1,0,0,1,56,48)">
                            <rect x="0" y="0" width="8" height="8"/>
                        </g>
                        <g id="p36" serif:id="p" transform="matrix(1,0,0,1,56,56)">
                            <rect x="0" y="0" width="8" height="8"/>
                        </g>
                        <g id="p37" serif:id="p" transform="matrix(1,0,0,1,56,64)">
                            <rect x="0" y="0" width="8" height="8"/>
                        </g>
                        <g id="p38" serif:id="p" transform="matrix(1,0,0,1,56,80)">
                            <rect x="0" y="0" width="8" height="8"/>
                        </g>
                        <g id="p39" serif:id="p" transform="matrix(1,0,0,1,56,96)">
                            <rect x="0" y="0" width="8" height="8"/>
                        </g>
                        <g id="p40" serif:id="p" transform="matrix(1,0,0,1,56,104)">
                            <rect x="0" y="0" width="8" height="8"/>
                        </g>
                        <g id="p41" serif:id="p" transform="matrix(1,0,0,1,56,120)">
                            <rect x="0" y="0" width="8" height="8"/>
                        </g>
                        <g id="p42" serif:id="p" transform="matrix(1,0,0,1,56,128)">
                            <rect x="0" y="0" width="8" height="8"/>
                        </g>
                        <g id="p43" serif:id="p" transform="matrix(1,0,0,1,56,144)">
                            <rect x="0" y="0" width="8" height="8"/>
                        </g>
                        <g id="p44" serif:id="p" transform="matrix(1,0,0,1,56,160)">
                            <rect x="0" y="0" width="8" height="8"/>
                        </g>
                        <g id="p45" serif:id="p" transform="matrix(1,0,0,1,56,168)">
                            <rect x="0" y="0" width="8" height="8"/>
                        </g>
                        <g id="p46" serif:id="p" transform="matrix(1,0,0,1,56,176)">
                            <rect x="0" y="0" width="8" height="8"/>
                        </g>
                        <g id="p47" serif:id="p" transform="matrix(1,0,0,1,56,192)">
                            <rect x="0" y="0" width="8" height="8"/>
                        </g>
                        <g id="p48" serif:id="p" transform="matrix(1,0,0,1,64,32)">
                            <rect x="0" y="0" width="8" height="8"/>
                        </g>
                        <g id="p49" serif:id="p" transform="matrix(1,0,0,1,64,48)">
                            <rect x="0" y="0" width="8" height="8"/>
                        </g>
                        <g id="p50" serif:id="p" transform="matrix(1,0,0,1,64,56)">
                            <rect x="0" y="0" width="8" height="8"/>
                        </g>
                        <g id="p51" serif:id="p" transform="matrix(1,0,0,1,64,64)">
                            <rect x="0" y="0" width="8" height="8"/>
                        </g>
                        <g id="p52" serif:id="p" transform="matrix(1,0,0,1,64,80)">
                            <rect x="0" y="0" width="8" height="8"/>
                        </g>
                        <g id="p53" serif:id="p" transform="matrix(1,0,0,1,64,104)">
                            <rect x="0" y="0" width="8" height="8"/>
                        </g>
                        <g id="p54" serif:id="p" transform="matrix(1,0,0,1,64,120)">
                            <rect x="0" y="0" width="8" height="8"/>
                        </g>
                        <g id="p55" serif:id="p" transform="matrix(1,0,0,1,64,128)">
                            <rect x="0" y="0" width="8" height="8"/>
                        </g>
                        <g id="p56" serif:id="p" transform="matrix(1,0,0,1,64,144)">
                            <rect x="0" y="0" width="8" height="8"/>
                        </g>
                        <g id="p57" serif:id="p" transform="matrix(1,0,0,1,64,160)">
                            <rect x="0" y="0" width="8" height="8"/>
                        </g>
                        <g id="p58" serif:id="p" transform="matrix(1,0,0,1,64,168)">
                            <rect x="0" y="0" width="8" height="8"/>
                        </g>
                        <g id="p59" serif:id="p" transform="matrix(1,0,0,1,64,176)">
                            <rect x="0" y="0" width="8" height="8"/>
                        </g>
                        <g id="p60" serif:id="p" transform="matrix(1,0,0,1,64,192)">
                            <rect x="0" y="0" width="8" height="8"/>
                        </g>
                        <g id="p61" serif:id="p" transform="matrix(1,0,0,1,72,32)">
                            <rect x="0" y="0" width="8" height="8"/>
                        </g>
                        <g id="p62" serif:id="p" transform="matrix(1,0,0,1,72,80)">
                            <rect x="0" y="0" width="8" height="8"/>
                        </g>
                        <g id="p63" serif:id="p" transform="matrix(1,0,0,1,72,104)">
                            <rect x="0" y="0" width="8" height="8"/>
                        </g>
                        <g id="p64" serif:id="p" transform="matrix(1,0,0,1,72,112)">
                            <rect x="0" y="0" width="8" height="8"/>
                        </g>
                        <g id="p65" serif:id="p" transform="matrix(1,0,0,1,72,144)">
                            <rect x="0" y="0" width="8" height="8"/>
                        </g>
                        <g id="p66" serif:id="p" transform="matrix(1,0,0,1,72,192)">
                            <rect x="0" y="0" width="8" height="8"/>
                        </g>
                        <g id="p67" serif:id="p" transform="matrix(1,0,0,1,80,32)">
                            <rect x="0" y="0" width="8" height="8"/>
                        </g>
                        <g id="p68" serif:id="p" transform="matrix(1,0,0,1,80,40)">
                            <rect x="0" y="0" width="8" height="8"/>
                        </g>
                        <g id="p69" serif:id="p" transform="matrix(1,0,0,1,80,48)">
                            <rect x="0" y="0" width="8" height="8"/>
                        </g>
                        <g id="p70" serif:id="p" transform="matrix(1,0,0,1,80,56)">
                            <rect x="0" y="0" width="8" height="8"/>
                        </g>
                        <g id="p71" serif:id="p" transform="matrix(1,0,0,1,80,64)">
                            <rect x="0" y="0" width="8" height="8"/>
                        </g>
                        <g id="p72" serif:id="p" transform="matrix(1,0,0,1,80,72)">
                            <rect x="0" y="0" width="8" height="8"/>
                        </g>
                        <g id="p73" serif:id="p" transform="matrix(1,0,0,1,80,80)">
                            <rect x="0" y="0" width="8" height="8"/>
                        </g>
                        <g id="p74" serif:id="p" transform="matrix(1,0,0,1,80,96)">
                            <rect x="0" y="0" width="8" height="8"/>
                        </g>
                        <g id="p75" serif:id="p" transform="matrix(1,0,0,1,80,112)">
                            <rect x="0" y="0" width="8" height="8"/>
                        </g>
                        <g id="p76" serif:id="p" transform="matrix(1,0,0,1,80,128)">
                            <rect x="0" y="0" width="8" height="8"/>
                        </g>
                        <g id="p77" serif:id="p" transform="matrix(1,0,0,1,80,144)">
                            <rect x="0" y="0" width="8" height="8"/>
                        </g>
                        <g id="p78" serif:id="p" transform="matrix(1,0,0,1,80,152)">
                            <rect x="0" y="0" width="8" height="8"/>
                        </g>
                        <g id="p79" serif:id="p" transform="matrix(1,0,0,1,80,160)">
                            <rect x="0" y="0" width="8" height="8"/>
                        </g>
                        <g id="p80" serif:id="p" transform="matrix(1,0,0,1,80,168)">
                            <rect x="0" y="0" width="8" height="8"/>
                        </g>
                        <g id="p81" serif:id="p" transform="matrix(1,0,0,1,80,176)">
                            <rect x="0" y="0" width="8" height="8"/>
                        </g>
                        <g id="p82" serif:id="p" transform="matrix(1,0,0,1,80,184)">
                            <rect x="0" y="0" width="8" height="8"/>
                        </g>
                        <g id="p83" serif:id="p" transform="matrix(1,0,0,1,80,192)">
                            <rect x="0" y="0" width="8" height="8"/>
                        </g>
                        <g id="p84" serif:id="p" transform="matrix(1,0,0,1,88,120)">
                            <rect x="0" y="0" width="8" height="8"/>
                        </g>
                        <g id="p85" serif:id="p" transform="matrix(1,0,0,1,96,32)">
                            <rect x="0" y="0" width="8" height="8"/>
                        </g>
                        <g id="p86" serif:id="p" transform="matrix(1,0,0,1,96,40)">
                            <rect x="0" y="0" width="8" height="8"/>
                        </g>
                        <g id="p87" serif:id="p" transform="matrix(1,0,0,1,96,56)">
                            <rect x="0" y="0" width="8" height="8"/>
                        </g>
                        <g id="p88" serif:id="p" transform="matrix(1,0,0,1,96,64)">
                            <rect x="0" y="0" width="8" height="8"/>
                        </g>
                        <g id="p89" serif:id="p" transform="matrix(1,0,0,1,96,72)">
                            <rect x="0" y="0" width="8" height="8"/>
                        </g>
                        <g id="p90" serif:id="p" transform="matrix(1,0,0,1,96,80)">
                            <rect x="0" y="0" width="8" height="8"/>
                        </g>
                        <g id="p91" serif:id="p" transform="matrix(1,0,0,1,96,104)">
                            <rect x="0" y="0" width="8" height="8"/>
                        </g>
                        <g id="p92" serif:id="p" transform="matrix(1,0,0,1,96,112)">
                            <rect x="0" y="0" width="8" height="8"/>
                        </g>
                        <g id="p93" serif:id="p" transform="matrix(1,0,0,1,96,120)">
                            <rect x="0" y="0" width="8" height="8"/>
                        </g>
                        <g id="p94" serif:id="p" transform="matrix(1,0,0,1,96,128)">
                            <rect x="0" y="0" width="8" height="8"/>
                        </g>
                        <g id="p95" serif:id="p" transform="matrix(1,0,0,1,96,136)">
                            <rect x="0" y="0" width="8" height="8"/>
                        </g>
                        <g id="p96" serif:id="p" transform="matrix(1,0,0,1,96,168)">
                            <rect x="0" y="0" width="8" height="8"/>
                        </g>
                        <g id="p97" serif:id="p" transform="matrix(1,0,0,1,104,40)">
                            <rect x="0" y="0" width="8" height="8"/>
                        </g>
                        <g id="p98" serif:id="p" transform="matrix(1,0,0,1,104,48)">
                            <rect x="0" y="0" width="8" height="8"/>
                        </g>
                        <g id="p99" serif:id="p" transform="matrix(1,0,0,1,104,64)">
                            <rect x="0" y="0" width="8" height="8"/>
                        </g>
                        <g id="p100" serif:id="p" transform="matrix(1,0,0,1,104,72)">
                            <rect x="0" y="0" width="8" height="8"/>
                        </g>
                        <g id="p101" serif:id="p" transform="matrix(1,0,0,1,104,88)">
                            <rect x="0" y="0" width="8" height="8"/>
                        </g>
                        <g id="p102" serif:id="p" transform="matrix(1,0,0,1,104,112)">
                            <rect x="0" y="0" width="8" height="8"/>
                        </g>
                        <g id="p103" serif:id="p" transform="matrix(1,0,0,1,104,120)">
                            <rect x="0" y="0" width="8" height="8"/>
                        </g>
                        <g id="p104" serif:id="p" transform="matrix(1,0,0,1,104,128)">
                            <rect x="0" y="0" width="8" height="8"/>
                        </g>
                        <g id="p105" serif:id="p" transform="matrix(1,0,0,1,104,136)">
                            <rect x="0" y="0" width="8" height="8"/>
                        </g>
                        <g id="p106" serif:id="p" transform="matrix(1,0,0,1,104,144)">
                            <rect x="0" y="0" width="8" height="8"/>
                        </g>
                        <g id="p107" serif:id="p" transform="matrix(1,0,0,1,104,168)">
                            <rect x="0" y="0" width="8" height="8"/>
                        </g>
                        <g id="p108" serif:id="p" transform="matrix(1,0,0,1,104,176)">
                            <rect x="0" y="0" width="8" height="8"/>
                        </g>
                        <g id="p109" serif:id="p" transform="matrix(1,0,0,1,104,184)">
                            <rect x="0" y="0" width="8" height="8"/>
                        </g>
                        <g id="p110" serif:id="p" transform="matrix(1,0,0,1,112,48)">
                            <rect x="0" y="0" width="8" height="8"/>
                        </g>
                        <g id="p111" serif:id="p" transform="matrix(1,0,0,1,112,56)">
                            <rect x="0" y="0" width="8" height="8"/>
                        </g>
                        <g id="p112" serif:id="p" transform="matrix(1,0,0,1,112,80)">
                            <rect x="0" y="0" width="8" height="8"/>
                        </g>
                        <g id="p113" serif:id="p" transform="matrix(1,0,0,1,112,88)">
                            <rect x="0" y="0" width="8" height="8"/>
                        </g>
                        <g id="p114" serif:id="p" transform="matrix(1,0,0,1,112,128)">
                            <rect x="0" y="0" width="8" height="8"/>
                        </g>
                        <g id="p115" serif:id="p" transform="matrix(1,0,0,1,112,152)">
                            <rect x="0" y="0" width="8" height="8"/>
                        </g>
                        <g id="p116" serif:id="p" transform="matrix(1,0,0,1,112,176)">
                            <rect x="0" y="0" width="8" height="8"/>
                        </g>
                        <g id="p117" serif:id="p" transform="matrix(1,0,0,1,120,32)">
                            <rect x="0" y="0" width="8" height="8"/>
                        </g>
                        <g id="p118" serif:id="p" transform="matrix(1,0,0,1,120,40)">
                            <rect x="0" y="0" width="8" height="8"/>
                        </g>
                        <g id="p119" serif:id="p" transform="matrix(1,0,0,1,120,48)">
                            <rect x="0" y="0" width="8" height="8"/>
                        </g>
                        <g id="p120" serif:id="p" transform="matrix(1,0,0,1,120,56)">
                            <rect x="0" y="0" width="8" height="8"/>
                        </g>
                        <g id="p121" serif:id="p" transform="matrix(1,0,0,1,120,64)">
                            <rect x="0" y="0" width="8" height="8"/>
                        </g>
                        <g id="p122" serif:id="p" transform="matrix(1,0,0,1,120,72)">
                            <rect x="0" y="0" width="8" height="8"/>
                        </g>
                        <g id="p123" serif:id="p" transform="matrix(1,0,0,1,120,88)">
                            <rect x="0" y="0" width="8" height="8"/>
                        </g>
                        <g id="p124" serif:id="p" transform="matrix(1,0,0,1,120,96)">
                            <rect x="0" y="0" width="8" height="8"/>
                        </g>
                        <g id="p125" serif:id="p" transform="matrix(1,0,0,1,120,104)">
                            <rect x="0" y="0" width="8" height="8"/>
                        </g>
                        <g id="p126" serif:id="p" transform="matrix(1,0,0,1,120,128)">
                            <rect x="0" y="0" width="8" height="8"/>
                        </g>
                        <g id="p127" serif:id="p" transform="matrix(1,0,0,1,120,152)">
                            <rect x="0" y="0" width="8" height="8"/>
                        </g>
                        <g id="p128" serif:id="p" transform="matrix(1,0,0,1,120,160)">
                            <rect x="0" y="0" width="8" height="8"/>
                        </g>
                        <g id="p129" serif:id="p" transform="matrix(1,0,0,1,120,184)">
                            <rect x="0" y="0" width="8" height="8"/>
                        </g>
                        <g id="p130" serif:id="p" transform="matrix(1,0,0,1,120,192)">
                            <rect x="0" y="0" width="8" height="8"/>
                        </g>
                        <g id="p131" serif:id="p" transform="matrix(1,0,0,1,128,40)">
                            <rect x="0" y="0" width="8" height="8"/>
                        </g>
                        <g id="p132" serif:id="p" transform="matrix(1,0,0,1,128,48)">
                            <rect x="0" y="0" width="8" height="8"/>
                        </g>
                        <g id="p133" serif:id="p" transform="matrix(1,0,0,1,128,72)">
                            <rect x="0" y="0" width="8" height="8"/>
                        </g>
                        <g id="p134" serif:id="p" transform="matrix(1,0,0,1,128,80)">
                            <rect x="0" y="0" width="8" height="8"/>
                        </g>
                        <g id="p135" serif:id="p" transform="matrix(1,0,0,1,128,128)">
                            <rect x="0" y="0" width="8" height="8"/>
                        </g>
                        <g id="p136" serif:id="p" transform="matrix(1,0,0,1,128,136)">
                            <rect x="0" y="0" width="8" height="8"/>
                        </g>
                        <g id="p137" serif:id="p" transform="matrix(1,0,0,1,128,160)">
                            <rect x="0" y="0" width="8" height="8"/>
                        </g>
                        <g id="p138" serif:id="p" transform="matrix(1,0,0,1,136,120)">
                            <rect x="0" y="0" width="8" height="8"/>
                        </g>
                        <g id="p139" serif:id="p" transform="matrix(1,0,0,1,136,152)">
                            <rect x="0" y="0" width="8" height="8"/>
                        </g>
                        <g id="p140" serif:id="p" transform="matrix(1,0,0,1,136,160)">
                            <rect x="0" y="0" width="8" height="8"/>
                        </g>
                        <g id="p141" serif:id="p" transform="matrix(1,0,0,1,136,184)">
                            <rect x="0" y="0" width="8" height="8"/>
                        </g>
                        <g id="p142" serif:id="p" transform="matrix(1,0,0,1,144,32)">
                            <rect x="0" y="0" width="8" height="8"/>
                        </g>
                        <g id="p143" serif:id="p" transform="matrix(1,0,0,1,144,40)">
                            <rect x="0" y="0" width="8" height="8"/>
                        </g>
                        <g id="p144" serif:id="p" transform="matrix(1,0,0,1,144,48)">
                            <rect x="0" y="0" width="8" height="8"/>
                        </g>
                        <g id="p145" serif:id="p" transform="matrix(1,0,0,1,144,56)">
                            <rect x="0" y="0" width="8" height="8"/>
                        </g>
                        <g id="p146" serif:id="p" transform="matrix(1,0,0,1,144,64)">
                            <rect x="0" y="0" width="8" height="8"/>
                        </g>
                        <g id="p147" serif:id="p" transform="matrix(1,0,0,1,144,72)">
                            <rect x="0" y="0" width="8" height="8"/>
                        </g>
                        <g id="p148" serif:id="p" transform="matrix(1,0,0,1,144,80)">
                            <rect x="0" y="0" width="8" height="8"/>
                        </g>
                        <g id="p149" serif:id="p" transform="matrix(1,0,0,1,144,104)">
                            <rect x="0" y="0" width="8" height="8"/>
                        </g>
                        <g id="p150" serif:id="p" transform="matrix(1,0,0,1,144,128)">
                            <rect x="0" y="0" width="8" height="8"/>
                        </g>
                        <g id="p151" serif:id="p" transform="matrix(1,0,0,1,144,160)">
                            <rect x="0" y="0" width="8" height="8"/>
                        </g>
                        <g id="p152" serif:id="p" transform="matrix(1,0,0,1,144,168)">
                            <rect x="0" y="0" width="8" height="8"/>
                        </g>
                        <g id="p153" serif:id="p" transform="matrix(1,0,0,1,144,176)">
                            <rect x="0" y="0" width="8" height="8"/>
                        </g>
                        <g id="p154" serif:id="p" transform="matrix(1,0,0,1,152,32)">
                            <rect x="0" y="0" width="8" height="8"/>
                        </g>
                        <g id="p155" serif:id="p" transform="matrix(1,0,0,1,152,80)">
                            <rect x="0" y="0" width="8" height="8"/>
                        </g>
                        <g id="p156" serif:id="p" transform="matrix(1,0,0,1,152,96)">
                            <rect x="0" y="0" width="8" height="8"/>
                        </g>
                        <g id="p157" serif:id="p" transform="matrix(1,0,0,1,152,104)">
                            <rect x="0" y="0" width="8" height="8"/>
                        </g>
                        <g id="p158" serif:id="p" transform="matrix(1,0,0,1,152,112)">
                            <rect x="0" y="0" width="8" height="8"/>
                        </g>
                        <g id="p159" serif:id="p" transform="matrix(1,0,0,1,152,120)">
                            <rect x="0" y="0" width="8" height="8"/>
                        </g>
                        <g id="p160" serif:id="p" transform="matrix(1,0,0,1,152,128)">
                            <rect x="0" y="0" width="8" height="8"/>
                        </g>
                        <g id="p161" serif:id="p" transform="matrix(1,0,0,1,152,168)">
                            <rect x="0" y="0" width="8" height="8"/>
                        </g>
                        <g id="p162" serif:id="p" transform="matrix(1,0,0,1,152,176)">
                            <rect x="0" y="0" width="8" height="8"/>
                        </g>
                        <g id="p163" serif:id="p" transform="matrix(1,0,0,1,152,184)">
                            <rect x="0" y="0" width="8" height="8"/>
                        </g>
                        <g id="p164" serif:id="p" transform="matrix(1,0,0,1,152,192)">
                            <rect x="0" y="0" width="8" height="8"/>
                        </g>
                        <g id="p165" serif:id="p" transform="matrix(1,0,0,1,160,32)">
                            <rect x="0" y="0" width="8" height="8"/>
                        </g>
                        <g id="p166" serif:id="p" transform="matrix(1,0,0,1,160,48)">
                            <rect x="0" y="0" width="8" height="8"/>
                        </g>
                        <g id="p167" serif:id="p" transform="matrix(1,0,0,1,160,56)">
                            <rect x="0" y="0" width="8" height="8"/>
                        </g>
                        <g id="p168" serif:id="p" transform="matrix(1,0,0,1,160,64)">
                            <rect x="0" y="0" width="8" height="8"/>
                        </g>
                        <g id="p169" serif:id="p" transform="matrix(1,0,0,1,160,80)">
                            <rect x="0" y="0" width="8" height="8"/>
                        </g>
                        <g id="p170" serif:id="p" transform="matrix(1,0,0,1,160,96)">
                            <rect x="0" y="0" width="8" height="8"/>
                        </g>
                        <g id="p171" serif:id="p" transform="matrix(1,0,0,1,160,112)">
                            <rect x="0" y="0" width="8" height="8"/>
                        </g>
                        <g id="p172" serif:id="p" transform="matrix(1,0,0,1,160,120)">
                            <rect x="0" y="0" width="8" height="8"/>
                        </g>
                        <g id="p173" serif:id="p" transform="matrix(1,0,0,1,160,136)">
                            <rect x="0" y="0" width="8" height="8"/>
                        </g>
                        <g id="p174" serif:id="p" transform="matrix(1,0,0,1,160,144)">
                            <rect x="0" y="0" width="8" height="8"/>
                        </g>
                        <g id="p175" serif:id="p" transform="matrix(1,0,0,1,168,32)">
                            <rect x="0" y="0" width="8" height="8"/>
                        </g>
                        <g id="p176" serif:id="p" transform="matrix(1,0,0,1,168,48)">
                            <rect x="0" y="0" width="8" height="8"/>
                        </g>
                        <g id="p177" serif:id="p" transform="matrix(1,0,0,1,168,56)">
                            <rect x="0" y="0" width="8" height="8"/>
                        </g>
                        <g id="p178" serif:id="p" transform="matrix(1,0,0,1,168,64)">
                            <rect x="0" y="0" width="8" height="8"/>
                        </g>
                        <g id="p179" serif:id="p" transform="matrix(1,0,0,1,168,80)">
                            <rect x="0" y="0" width="8" height="8"/>
                        </g>
                        <g id="p180" serif:id="p" transform="matrix(1,0,0,1,168,96)">
                            <rect x="0" y="0" width="8" height="8"/>
                        </g>
                        <g id="p181" serif:id="p" transform="matrix(1,0,0,1,168,112)">
                            <rect x="0" y="0" width="8" height="8"/>
                        </g>
                        <g id="p182" serif:id="p" transform="matrix(1,0,0,1,168,144)">
                            <rect x="0" y="0" width="8" height="8"/>
                        </g>
                        <g id="p183" serif:id="p" transform="matrix(1,0,0,1,168,176)">
                            <rect x="0" y="0" width="8" height="8"/>
                        </g>
                        <g id="p184" serif:id="p" transform="matrix(1,0,0,1,168,184)">
                            <rect x="0" y="0" width="8" height="8"/>
                        </g>
                        <g id="p185" serif:id="p" transform="matrix(1,0,0,1,176,32)">
                            <rect x="0" y="0" width="8" height="8"/>
                        </g>
                        <g id="p186" serif:id="p" transform="matrix(1,0,0,1,176,48)">
                            <rect x="0" y="0" width="8" height="8"/>
                        </g>
                        <g id="p187" serif:id="p" transform="matrix(1,0,0,1,176,56)">
                            <rect x="0" y="0" width="8" height="8"/>
                        </g>
                        <g id="p188" serif:id="p" transform="matrix(1,0,0,1,176,64)">
                            <rect x="0" y="0" width="8" height="8"/>
                        </g>
                        <g id="p189" serif:id="p" transform="matrix(1,0,0,1,176,80)">
                            <rect x="0" y="0" width="8" height="8"/>
                        </g>
                        <g id="p190" serif:id="p" transform="matrix(1,0,0,1,176,104)">
                            <rect x="0" y="0" width="8" height="8"/>
                        </g>
                        <g id="p191" serif:id="p" transform="matrix(1,0,0,1,176,112)">
                            <rect x="0" y="0" width="8" height="8"/>
                        </g>
                        <g id="p192" serif:id="p" transform="matrix(1,0,0,1,176,128)">
                            <rect x="0" y="0" width="8" height="8"/>
                        </g>
                        <g id="p193" serif:id="p" transform="matrix(1,0,0,1,176,136)">
                            <rect x="0" y="0" width="8" height="8"/>
                        </g>
                        <g id="p194" serif:id="p" transform="matrix(1,0,0,1,176,152)">
                            <rect x="0" y="0" width="8" height="8"/>
                        </g>
                        <g id="p195" serif:id="p" transform="matrix(1,0,0,1,176,160)">
                            <rect x="0" y="0" width="8" height="8"/>
                        </g>
                        <g id="p196" serif:id="p" transform="matrix(1,0,0,1,176,176)">
                            <rect x="0" y="0" width="8" height="8"/>
                        </g>
                        <g id="p197" serif:id="p" transform="matrix(1,0,0,1,176,192)">
                            <rect x="0" y="0" width="8" height="8"/>
                        </g>
                        <g id="p198" serif:id="p" transform="matrix(1,0,0,1,184,32)">
                            <rect x="0" y="0" width="8" height="8"/>
                        </g>
                        <g id="p199" serif:id="p" transform="matrix(1,0,0,1,184,80)">
                            <rect x="0" y="0" width="8" height="8"/>
                        </g>
                        <g id="p200" serif:id="p" transform="matrix(1,0,0,1,184,96)">
                            <rect x="0" y="0" width="8" height="8"/>
                        </g>
                        <g id="p201" serif:id="p" transform="matrix(1,0,0,1,184,104)">
                            <rect x="0" y="0" width="8" height="8"/>
                        </g>
                        <g id="p202" serif:id="p" transform="matrix(1,0,0,1,184,120)">
                            <rect x="0" y="0" width="8" height="8"/>
                        </g>
                        <g id="p203" serif:id="p" transform="matrix(1,0,0,1,184,144)">
                            <rect x="0" y="0" width="8" height="8"/>
                        </g>
                        <g id="p204" serif:id="p" transform="matrix(1,0,0,1,184,152)">
                            <rect x="0" y="0" width="8" height="8"/>
                        </g>
                        <g id="p205" serif:id="p" transform="matrix(1,0,0,1,184,160)">
                            <rect x="0" y="0" width="8" height="8"/>
                        </g>
                        <g id="p206" serif:id="p" transform="matrix(1,0,0,1,184,168)">
                            <rect x="0" y="0" width="8" height="8"/>
                        </g>
                        <g id="p207" serif:id="p" transform="matrix(1,0,0,1,184,192)">
                            <rect x="0" y="0" width="8" height="8"/>
                        </g>
                        <g id="p208" serif:id="p" transform="matrix(1,0,0,1,192,32)">
                            <rect x="0" y="0" width="8" height="8"/>
                        </g>
                        <g id="p209" serif:id="p" transform="matrix(1,0,0,1,192,40)">
                            <rect x="0" y="0" width="8" height="8"/>
                        </g>
                        <g id="p210" serif:id="p" transform="matrix(1,0,0,1,192,48)">
                            <rect x="0" y="0" width="8" height="8"/>
                        </g>
                        <g id="p211" serif:id="p" transform="matrix(1,0,0,1,192,56)">
                            <rect x="0" y="0" width="8" height="8"/>
                        </g>
                        <g id="p212" serif:id="p" transform="matrix(1,0,0,1,192,64)">
                            <rect x="0" y="0" width="8" height="8"/>
                        </g>
                        <g id="p213" serif:id="p" transform="matrix(1,0,0,1,192,72)">
                            <rect x="0" y="0" width="8" height="8"/>
                        </g>
                        <g id="p214" serif:id="p" transform="matrix(1,0,0,1,192,80)">
                            <rect x="0" y="0" width="8" height="8"/>
                        </g>
                        <g id="p215" serif:id="p" transform="matrix(1,0,0,1,192,96)">
                            <rect x="0" y="0" width="8" height="8"/>
                        </g>
                        <g id="p216" serif:id="p" transform="matrix(1,0,0,1,192,112)">
                            <rect x="0" y="0" width="8" height="8"/>
                        </g>
                        <g id="p217" serif:id="p" transform="matrix(1,0,0,1,192,128)">
                            <rect x="0" y="0" width="8" height="8"/>
                        </g>
                        <g id="p218" serif:id="p" transform="matrix(1,0,0,1,192,152)">
                            <rect x="0" y="0" width="8" height="8"/>
                        </g>
                        <g id="p219" serif:id="p" transform="matrix(1,0,0,1,192,160)">
                            <rect x="0" y="0" width="8" height="8"/>
                        </g>
                        <g id="p220" serif:id="p" transform="matrix(1,0,0,1,192,168)">
                            <rect x="0" y="0" width="8" height="8"/>
                        </g>
                        <g id="p221" serif:id="p" transform="matrix(1,0,0,1,192,176)">
                            <rect x="0" y="0" width="8" height="8"/>
                        </g>
                    </g>
                </g>
            </g>
        </g>
    </g>
</svg>
