<?xml version="1.0" encoding="UTF-8" standalone="no"?>
<!DOCTYPE svg PUBLIC "-//W3C//DTD SVG 1.1//EN" "http://www.w3.org/Graphics/SVG/1.1/DTD/svg11.dtd">
<svg width="100%" height="100%" viewBox="0 0 427 273" version="1.1" xmlns="http://www.w3.org/2000/svg" xmlns:xlink="http://www.w3.org/1999/xlink" xml:space="preserve" xmlns:serif="http://www.serif.com/" style="fill-rule:evenodd;clip-rule:evenodd;stroke-linejoin:round;stroke-miterlimit:2;">
    <g transform="matrix(1,0,0,1,-452.239,-918.485)">
        <g id="Artboard1" transform="matrix(0.973514,0,0,0.769976,-111.151,911.287)">
            <rect x="578.718" y="9.348" width="437.949" height="353.89" style="fill:none;"/>
            <g transform="matrix(7.49387,0,0,9.47482,-462.495,-1885.94)">
                <path d="M149.012,217.371L151.756,217.241L153.564,216.791C154.622,216.303 154.99,215.798 155.079,215.677C155.708,214.813 156.101,213.426 156.16,213.219L157.059,210.018L157.397,207.409C157.398,207.329 157.406,206.679 156.92,206.53L155.399,206.338L153.493,206.31L152.06,206.35L150.818,206.393C149.056,210.38 149.018,216.481 149.012,217.371ZM150.816,231.022L151.865,231.056L153.488,231.103L156.484,231.085C156.606,231.079 157.682,231.031 157.978,230.774C158.058,230.705 158.416,230.394 158.396,229.52L158.003,226.093C157.935,225.594 157.448,222.057 156.218,220.051C154.826,217.78 152.688,217.828 152.33,217.836L149.009,217.926C149.005,218.984 148.977,226.854 150.816,231.022ZM146.947,231.301L146.947,206.106L150.755,206.106L152.022,206.11L153.292,206.109L154.365,206.109L158.917,206.179C159.094,206.184 160.479,206.226 161.092,206.538C162.101,207.051 162.253,207.625 162.289,207.757C162.346,207.885 162.617,208.493 162.492,209.503C162.465,209.721 162.345,210.7 161.431,212.033C161.274,212.262 160.246,213.763 159.119,214.609L156.436,216.4C155.147,217.117 154.047,217.263 153.828,217.292L153.827,217.42L156.713,218.156L160.153,219.99C161.977,221.163 162.828,222.52 162.997,222.791C163.161,223.061 164.142,224.676 164.257,226.535C164.373,228.414 163.778,229.32 163.643,229.523C163.532,229.68 162.916,230.547 161.699,230.93C160.879,231.218 159.194,231.252 158.975,231.256L154.433,231.312L152.187,231.312L150.849,231.305L149.483,231.303L146.947,231.301ZM165.745,206.106L170.042,206.106C172.866,205.701 178.793,217.951 180.087,227.054L180.182,227.039C184.502,218.875 184.919,207.823 184.983,206.106L189.378,206.106L189.378,231.301L185.378,231.305L185.538,230.955C187.837,225.638 187.925,212.206 185.596,206.601L185.503,206.596C185.342,208.717 183.629,231.34 175.714,231.312C177.463,231.338 166.991,205.312 165.745,206.106Z"/>
            </g>
        </g>
    </g>
</svg>
