<?xml version="1.0" encoding="UTF-8" standalone="no"?>
<!DOCTYPE svg PUBLIC "-//W3C//DTD SVG 1.1//EN" "http://www.w3.org/Graphics/SVG/1.1/DTD/svg11.dtd">
<svg width="100%" height="100%" viewBox="0 0 853 545" version="1.1" xmlns="http://www.w3.org/2000/svg" xmlns:xlink="http://www.w3.org/1999/xlink" xml:space="preserve" xmlns:serif="http://www.serif.com/" style="fill-rule:evenodd;clip-rule:evenodd;stroke-linejoin:round;stroke-miterlimit:2;">
    <g transform="matrix(2,0,0,2,-1817.42,-612.697)">
        <g id="Artboard1" transform="matrix(0.973514,0,0,0.769976,345.318,299.151)">
            <rect x="578.718" y="9.348" width="437.949" height="353.89" style="fill:none;"/>
            <g transform="matrix(1.01197,0,0,1.29874,-337.747,-389.175)">
                <path d="M1285.49,345.598L1285.49,540.595L958.531,540.595L958.531,345.598L1285.49,345.598ZM964.904,534.962L993.83,534.962L1003.71,535.042L1020.34,535.042C1032.4,535.042 1045.86,534.5 1056.02,532.112C1065.05,529.992 1075.55,524.987 1081.33,520.713C1087.6,516.438 1092.66,510.976 1096.52,504.327C1099.89,498.152 1101.58,491.028 1101.58,482.953C1101.58,475.829 1099.65,469.18 1095.8,463.005C1092.42,457.78 1087.6,453.268 1081.33,449.469C1075.07,445.669 1068.08,442.463 1061.09,440.207C1054.09,437.951 1046.62,436.882 1039.39,435.932L1039.39,435.22C1046.14,434.745 1052.65,433.32 1058.91,430.945C1065.66,428.57 1071.21,425.721 1075.55,422.396C1080.37,419.071 1084.23,414.797 1087.12,409.572C1090.01,404.347 1091.46,399.123 1091.46,393.898C1091.46,389.149 1090.49,384.637 1088.57,380.362C1087.12,376.087 1083.5,371.338 1077.72,366.113C1071.93,360.889 1064.7,357.089 1056.02,354.714C1046.86,351.864 1034.81,351.194 1019.86,351.194L1002.51,351.194C1001.06,351.194 994.071,351.152 993.107,351.152L964.904,351.152L964.904,534.962ZM994.553,532.073L994.553,438.07L1027.1,438.07C1040.6,438.07 1050.72,442.107 1057.47,450.181C1064.22,458.255 1067.59,468.942 1067.59,482.241C1067.59,489.84 1066.87,499.814 1064.7,506.464C1062.78,512.36 1059.4,517.388 1054.58,522.138C1050.72,525.937 1045.42,528.55 1038.67,529.974C1032.4,531.399 1024.44,532.112 1014.8,532.112L1002.51,532.112L994.553,532.073ZM994.553,434.507L994.553,354.09C994.553,354.09 999.616,354.002 1003.96,354.002L1014.8,354.002C1021.55,354.002 1025.05,354.358 1029.99,355.427C1034.93,356.495 1040.6,357.564 1044.45,360.414C1049.27,363.263 1052.46,368.239 1054.58,373.238C1056.99,378.937 1058.67,387.843 1058.91,394.611C1059.15,401.089 1057.71,408.503 1056.02,413.847C1054.55,418.516 1051.92,423.583 1048.79,426.671C1045.74,429.674 1041.35,431.159 1037.22,432.37C1032.76,433.676 1027.82,434.507 1022.03,434.507L994.553,434.507ZM1104.11,351.152L1177.88,534.962L1248.75,356.139L1249.47,356.139L1249.47,534.962L1279.12,534.962L1279.12,351.152L1246.58,351.152L1191.62,490.078L1190.89,490.078L1135.93,351.152L1104.11,351.152Z"/>
            </g>
        </g>
    </g>
</svg>
