<?xml version="1.0" encoding="UTF-8" standalone="no"?>
<!DOCTYPE svg PUBLIC "-//W3C//DTD SVG 1.1//EN" "http://www.w3.org/Graphics/SVG/1.1/DTD/svg11.dtd">
<svg width="100%" height="100%" viewBox="0 0 427 273" version="1.1" xmlns="http://www.w3.org/2000/svg" xmlns:xlink="http://www.w3.org/1999/xlink" xml:space="preserve" xmlns:serif="http://www.serif.com/" style="fill-rule:evenodd;clip-rule:evenodd;stroke-linejoin:round;stroke-miterlimit:2;">
    <g transform="matrix(1,0,0,1,-0.693682,-0.4427)">
        <g id="Artboard1" transform="matrix(0.973514,0,0,0.769976,-562.697,-6.75512)">
            <rect x="578.718" y="9.348" width="437.949" height="353.89" style="fill:none;"/>
            <g transform="matrix(7.49387,0,-1.886,9.47482,-50.0204,-1888.34)">
                <path d="M146.947,206.106L147.585,206.106C147.715,206.106 148.66,206.112 148.856,206.112L151.199,206.112C153.247,206.112 154.923,206.209 156.276,206.604C157.574,206.941 158.72,207.482 159.715,208.223C160.72,208.972 161.398,209.658 161.76,210.271C162.186,210.886 162.486,211.536 162.658,212.219C162.848,212.975 162.834,213.732 162.612,214.489C162.458,215.014 162.22,215.473 161.898,215.865C161.895,215.867 161.891,215.869 161.888,215.872C161.302,216.327 160.553,216.718 159.642,217.044C158.796,217.369 157.917,217.564 157.005,217.629L157.005,217.727C157.428,217.784 157.857,217.843 158.284,217.917C158.259,217.923 158.235,217.929 158.211,217.935C158.781,218.032 159.353,218.155 159.919,218.326C160.116,218.385 160.314,218.45 160.512,218.518C161.26,218.805 161.996,219.168 162.669,219.583C163.516,220.103 164.167,220.722 164.622,221.438C165.143,222.284 165.404,223.196 165.404,224.172C165.404,225.279 165.176,226.256 164.72,227.102C164.199,228.014 163.516,228.762 162.669,229.348C161.888,229.934 160.47,230.62 159.251,230.911C157.879,231.238 156.061,231.312 154.433,231.312L152.187,231.312L150.853,231.301L149.864,231.301L146.947,219.711L146.947,206.106ZM150.951,207.005C150.881,207.004 150.811,207.004 150.74,207.004L149.275,207.004C148.912,207.004 148.512,207.008 148.261,207.012L150.909,217.532C150.909,217.532 154.383,217.532 154.392,217.532L154.661,217.532C155.443,217.532 156.11,217.418 156.712,217.239C157.27,217.073 157.863,216.869 158.275,216.458C158.698,216.034 159.052,215.34 159.251,214.7C159.479,213.967 159.673,212.951 159.642,212.063C159.609,211.135 159.382,209.915 159.056,209.133C158.77,208.448 158.34,207.766 157.689,207.376C157.168,206.985 156.403,206.838 155.736,206.692C155.068,206.546 154.596,206.497 153.685,206.497L152.22,206.497C151.634,206.497 150.951,206.509 150.951,206.509L150.951,207.005ZM159.997,220.49C159.837,220.202 159.654,219.932 159.447,219.68C158.535,218.573 157.168,218.02 155.345,218.02L150.951,218.02L150.951,230.905L152.025,230.911L153.685,230.911C153.887,230.911 154.083,230.908 154.274,230.904L154.275,230.907L155.098,230.911L156.757,230.911C157.902,230.911 163.029,231.337 162.315,226.008C161.955,223.326 161.055,221.599 159.997,220.49ZM165.745,206.106L167.045,206.106L174.684,218.015L177.464,225.149L177.562,225.149L178.203,223.503L178.544,224.033L176.759,228.605L171.311,220.185L165.745,206.106ZM184.983,206.106L186.461,206.106L189.378,217.697L189.378,231.301L188.291,231.301L185.374,219.711L185.374,206.79L185.276,206.79L183.358,211.702L183.14,210.835L184.983,206.106ZM179.504,221.574L179.805,219.392L181.506,215.029L181.2,217.229L179.504,221.574Z"/>
            </g>
            <g transform="matrix(7.49387,0,0,9.47482,-462.495,-1885.94)">
                <path d="M164.33,207.664L162.967,204.217L171.333,204.217L177.513,220.073L183.692,204.217L191.267,204.217L191.267,233.19L183.485,233.19L183.485,216.571L175.717,236.467L165.919,211.684C165.923,211.778 165.925,211.871 165.925,211.965C165.925,212.982 165.663,214.002 165.109,215.018C164.582,215.984 163.881,216.774 163.011,217.391C162.958,217.431 162.905,217.471 162.85,217.511C163.126,217.658 163.397,217.813 163.659,217.974C164.772,218.659 165.617,219.483 166.224,220.436L166.231,220.448C166.94,221.601 167.292,222.843 167.292,224.172C167.292,225.619 166.979,226.892 166.372,228.019L166.36,228.039C165.702,229.191 164.838,230.138 163.775,230.88C162.828,231.581 161.143,232.402 159.689,232.748C158.192,233.105 156.209,233.201 154.433,233.201L152.179,233.201L150.845,233.19L145.058,233.19L145.058,204.217L150.755,204.217C150.885,204.217 151.829,204.223 152.025,204.223L154.368,204.223C156.606,204.223 158.411,204.355 159.788,204.783C161.257,205.196 162.476,205.864 163.457,206.764C163.79,207.07 164.08,207.37 164.33,207.664ZM152.839,208.386L152.839,215.643L154.661,215.643C154.919,215.643 156.307,215.717 157.162,214.762C157.791,214.06 157.997,212.865 157.607,210.914C157.505,210.407 157.391,209.754 156.884,209.25C156.315,208.686 155.328,208.386 153.685,208.386L152.839,208.386ZM152.839,229.022L153.685,229.022C154.535,229.022 158.387,229.52 158.852,225.563C159.128,223.22 158.766,221.786 158.026,220.943C157.072,219.855 155.639,219.909 155.345,219.909C155.345,219.909 152.839,219.909 152.839,219.909L152.839,229.022Z" style="fill:none;fill-rule:nonzero;stroke:black;stroke-width:0.14px;"/>
            </g>
            <g transform="matrix(7.49387,0,0,9.47482,-462.495,-1885.94)">
                <path d="M161.182,217.595C161.899,217.888 162.6,218.243 163.248,218.642C164.25,219.258 165.015,219.997 165.559,220.852L165.563,220.859C166.194,221.884 166.509,222.989 166.509,224.172C166.509,225.478 166.23,226.628 165.686,227.638L165.679,227.65C165.078,228.702 164.29,229.567 163.317,230.244C162.439,230.897 160.864,231.662 159.508,231.986C158.062,232.33 156.148,232.417 154.433,232.417L152.183,232.417L150.848,232.406L145.842,232.406L145.842,205.001L150.755,205.001C150.885,205.001 151.829,205.007 152.025,205.007L154.368,205.007C156.515,205.007 158.246,205.122 159.563,205.534C160.91,205.91 162.029,206.518 162.928,207.342C163.863,208.2 164.427,209.002 164.675,209.706C164.986,210.42 165.141,211.173 165.141,211.965C165.141,212.857 164.907,213.751 164.421,214.643C163.951,215.505 163.324,216.21 162.545,216.76C162.153,217.063 161.699,217.342 161.182,217.595ZM152.055,216.427L154.661,216.427C154.981,216.427 156.685,216.47 157.746,215.285C158.488,214.457 158.836,213.061 158.375,210.76C158.249,210.126 158.071,209.324 157.436,208.694C156.765,208.028 155.622,207.602 153.685,207.602L152.22,207.602C152.166,207.602 152.111,207.602 152.055,207.602L152.055,216.427ZM152.055,229.806L153.685,229.806C154.676,229.806 159.088,230.269 159.631,225.655C159.944,222.995 159.455,221.383 158.615,220.426C157.447,219.094 155.705,219.125 155.345,219.125C155.345,219.125 152.055,219.125 152.055,219.125L152.055,229.806ZM177.513,222.232L184.228,205.001L190.483,205.001L190.483,232.406L184.269,232.406L184.269,212.408L175.713,234.323L164.12,205.001L170.797,205.001L177.513,222.232Z" style="fill:none;fill-rule:nonzero;stroke:black;stroke-width:0.14px;"/>
            </g>
            <g transform="matrix(1.02721,0,0,1.29874,578.718,8.85541)">
                <circle cx="218.932" cy="167.892" r="5.757"/>
            </g>
            <g transform="matrix(1.02721,0,0,1.29874,673.842,49.2294)">
                <circle cx="218.932" cy="167.892" r="5.757"/>
            </g>
        </g>
    </g>
</svg>
