<?xml version="1.0" encoding="UTF-8" standalone="no"?><!DOCTYPE svg PUBLIC "-//W3C//DTD SVG 1.1//EN" "http://www.w3.org/Graphics/SVG/1.1/DTD/svg11.dtd"><svg width="100%" height="100%" viewBox="0 0 75 45" version="1.1" xmlns="http://www.w3.org/2000/svg" xmlns:xlink="http://www.w3.org/1999/xlink" xml:space="preserve" xmlns:serif="http://www.serif.com/" style="fill-rule:evenodd;clip-rule:evenodd;stroke-linejoin:round;stroke-miterlimit:2;"><g id="Layer1"><g id="Layer11" serif:id="Layer1"><path d="M7.01,20.005l6.498,0c1.368,0 2.536,-0.199 3.591,-0.513c0.977,-0.29 2.014,-0.647 2.735,-1.368c0.741,-0.74 1.362,-1.957 1.71,-3.077c0.399,-1.283 0.739,-3.062 0.684,-4.617c-0.057,-1.624 -0.456,-3.762 -1.026,-5.129c-0.5,-1.2 -1.254,-2.394 -2.394,-3.078c-0.911,-0.684 -2.251,-0.941 -3.419,-1.197c-1.169,-0.257 -1.995,-0.342 -3.591,-0.342l-2.565,-0c-1.026,-0 -2.223,0.021 -2.223,0.021l0,19.3Zm0,23.416l1.881,0.009l2.907,0c2.28,0 4.161,-0.171 5.643,-0.513c1.595,-0.342 2.849,-0.969 3.761,-1.88c1.14,-1.14 1.939,-2.347 2.394,-3.762c0.513,-1.596 0.684,-3.99 0.684,-5.814c-0,-3.191 -0.798,-5.756 -2.394,-7.694c-1.596,-1.938 -3.989,-2.907 -7.181,-2.907l-7.695,0l0,22.561Zm-7.01,0.693l0,-44.114l6.668,0c0.228,0 1.881,0.01 2.223,0.01l4.104,-0c3.534,-0 6.383,0.161 8.549,0.845c2.052,0.57 3.762,1.482 5.13,2.736c1.368,1.254 2.223,2.393 2.565,3.419c0.456,1.026 0.683,2.109 0.683,3.249c0,1.254 -0.341,2.508 -1.025,3.762c-0.684,1.254 -1.596,2.28 -2.736,3.078c-1.026,0.798 -2.337,1.481 -3.933,2.051c-1.482,0.57 -3.021,0.912 -4.616,1.026l-0,0.171c1.709,0.228 3.476,0.485 5.129,1.026c1.653,0.542 3.306,1.311 4.788,2.223c1.482,0.912 2.621,1.995 3.419,3.249c0.912,1.482 1.368,3.077 1.368,4.787c0,1.938 -0.399,3.648 -1.197,5.13c-0.912,1.596 -2.108,2.907 -3.59,3.933c-1.368,1.026 -3.851,2.227 -5.985,2.735c-2.403,0.574 -5.586,0.704 -8.436,0.704l-3.932,-0l-2.337,-0.02l-6.839,0Zm32.914,-44.114l7.524,0l12.995,33.342l0.171,0l12.994,-33.342l7.695,0l-0,44.114l-7.011,0l0,-42.917l-0.171,-0l-16.756,42.917l-17.441,-44.114Z" style="fill-rule:nonzero;"/></g></g></svg>