<?xml version="1.0" encoding="UTF-8" standalone="no"?>
<!DOCTYPE svg PUBLIC "-//W3C//DTD SVG 1.1//EN" "http://www.w3.org/Graphics/SVG/1.1/DTD/svg11.dtd">
<svg width="100%" height="100%" viewBox="0 0 427 273" version="1.1" xmlns="http://www.w3.org/2000/svg" xmlns:xlink="http://www.w3.org/1999/xlink" xml:space="preserve" xmlns:serif="http://www.serif.com/" style="fill-rule:evenodd;clip-rule:evenodd;stroke-linejoin:round;stroke-miterlimit:2;">
    <g transform="matrix(1,0,0,1,0,-306.349)">
        <g id="Artboard1" transform="matrix(0.973514,0,0,0.769976,-563.39,299.151)">
            <rect x="578.718" y="9.348" width="437.949" height="353.89" style="fill:none;"/>
            <g transform="matrix(1.02721,0,0,1.29874,578.718,-388.519)">
                <g transform="matrix(7.29539,0,0,7.29539,-1013.64,-1152.98)">
                    <path d="M163.002,228.922L162.989,228.968C162.747,229.556 162.092,229.902 161.993,229.954C161.545,230.224 160.105,230.764 159.205,230.953C157.496,231.312 154.816,231.312 154.433,231.312L152.187,231.312L150.853,231.301C149.551,231.301 148.249,231.301 146.947,231.301L146.947,206.106L150.755,206.106L152.025,206.112C152.806,206.112 153.587,206.112 154.368,206.112C154.407,206.112 157.426,206.063 159.231,206.534C160.524,206.831 161.775,207.411 161.935,207.483C162.266,207.63 162.61,207.751 162.943,207.894C163.018,207.926 163.096,207.958 163.16,208.009L163.283,208.084C161.116,208.123 159.689,208.136 158.615,208.323C158.685,208.166 158.716,208.005 158.621,207.849C158.343,207.391 157.69,207.137 157.596,207.1C157.174,206.888 155.869,206.662 155.716,206.635C154.922,206.497 154.306,206.48 153.681,206.486L152.221,206.499L150.954,206.519C150.958,208.705 150.639,211.123 150.65,213.302C149.688,214.452 147.746,216.637 147.718,218.708C147.691,220.6 149.135,222.546 150.016,224.078C149.98,226.494 150.975,228.504 150.962,230.895L152.028,230.908L153.673,230.922C153.924,230.924 155.537,230.939 156.81,230.707C156.953,230.683 158.105,230.489 158.504,230.045C158.909,229.596 158.472,229.402 158.303,229.324L157.775,229.116C159.497,229.251 162.586,228.961 163.002,228.922ZM163.283,208.084C163.648,208.077 165.473,208.044 167.849,208.025C172.302,209.215 171.689,211.993 173.156,219.348C174.188,224.527 175.662,224.188 175.552,227.214C173.954,227.446 170.424,228.001 167.76,228.362C165.059,228.728 163.384,228.886 163.002,228.922C163.135,228.413 162.68,227.502 162.653,227.44C162.008,225.948 161.972,225.982 161.362,224.482C160.828,223.234 160.072,221.865 159.297,220.744C158.491,219.578 157.589,218.17 157.079,217.62C156.242,216.719 155.098,216.516 154.931,216.48L154.972,216.271C156.041,215.877 157.282,214.751 157.46,214.59C158.423,213.763 159.741,212.459 160.181,211.997C161.01,211.197 161.931,210.1 162.378,209.624C162.464,209.533 163.324,208.62 163.392,208.433C163.445,208.289 163.406,208.173 163.283,208.084ZM167.849,208.025C166.965,207.789 166.243,207.556 165.745,206.106L170.042,206.106C170.729,207.694 172.455,207.85 173.46,208.017C173.089,208.015 171.259,208.005 168.83,208.019L167.849,208.025ZM173.46,208.017C177.763,208.041 181.225,207.751 184.222,210.696C184.224,210.938 184.296,210.946 182.365,218.822C181.317,223.099 181.146,224.131 179.932,225.671L179.849,225.674C180.011,223.623 179.416,223.688 178.899,219.347C177.865,210.657 178.303,208.826 173.46,208.017ZM184.222,210.696C184.214,209.878 183.864,208.826 184.983,206.106L189.378,206.106L189.378,231.301C188.043,231.301 186.708,231.301 185.374,231.301C185.297,228.882 186.015,225.715 185.992,223.363C186.568,222.806 188.602,220.889 188.612,218.691C188.62,216.854 187.106,214.772 186.202,213.275C186.232,210.965 185.41,208.986 185.366,206.798L185.27,206.797C184.4,209.117 184.586,210.652 184.562,211.047L184.222,210.696ZM185.992,223.363C183.803,225.483 180.92,226.258 179.638,226.555C181.56,224.403 181.639,223.378 182.598,219.44C184.481,211.713 184.52,211.735 184.562,211.047C185.41,211.965 186.087,213.086 186.202,213.275C186.131,218.728 185.946,218.704 185.992,223.363ZM179.638,226.555C178.635,227.679 176.351,229.714 175.706,231.301C175.121,229.771 175.516,228.201 175.552,227.214C178.012,226.856 178.012,226.931 179.638,226.555ZM157.775,229.116C153.309,228.766 151.3,226.311 150.016,224.078C150.053,221.554 150.074,221.567 150.427,217.76C151.288,217.652 153.524,217.296 153.587,217.287C155.525,216.992 155.819,219.626 155.917,220.994C156.153,224.272 155.665,227.115 156.333,228.151C156.743,228.785 157.705,229.09 157.775,229.116ZM150.65,213.302C152.114,211.551 154.732,209.001 158.615,208.323L158.474,208.612C158.027,209.496 158.055,209.488 157.786,210.429C157.55,211.255 156.92,212.787 156.483,213.575C155.923,214.588 155.047,215.371 154.899,215.505C154.785,215.606 154.046,216.268 153.251,216.464C153.03,216.518 151.199,216.969 150.486,217.111C150.704,214.629 150.652,213.884 150.65,213.302Z"/>
                </g>
            </g>
        </g>
    </g>
</svg>
